/* XPM */
static char *_926_1bbfe5434ec2eda117cd5b3f69b5ef52bec7d4b7fb4fb829f3d97aa7b7fe8167[] = {
/* columns rows colors chars-per-pixel */
"22 48 55 1 ",
"  c black",
". c #28200C",
"X c #382C14",
"o c #202020",
"O c #2C2C2C",
"+ c gray22",
"@ c #403018",
"# c #483818",
"$ c #543C1C",
"% c #5C4020",
"& c #6C4824",
"* c #744C28",
"= c #000040",
"- c #00004C",
"; c #000064",
": c #000070",
"> c #484848",
", c gray33",
"< c #646464",
"1 c gray44",
"2 c #7C7C7C",
"3 c #80502C",
"4 c #885830",
"5 c #905C34",
"6 c #9C6038",
"7 c #A0643C",
"8 c #A86840",
"9 c #B47044",
"0 c #BC7848",
"q c #C87C4C",
"w c #D08050",
"e c #DC8854",
"r c #E88C58",
"t c #F0945C",
"y c #FC9C60",
"u c #FCA470",
"i c #000088",
"p c #0000A4",
"a c #0000A8",
"s c #0000C8",
"d c #0000D4",
"f c #0000EC",
"g c #0004FC",
"h c gray55",
"j c #989898",
"k c gray66",
"l c #B4B4B4",
"z c #FCB080",
"x c #FCB890",
"c c #FCBC9C",
"v c #C0C0C0",
"b c #D0D0D0",
"n c gainsboro",
"m c gray99",
"M c None",
/* pixels */
"MMMMMMMMkkh2,+MMMMMMMM",
"MMMMMMMkk<1,>OOMMMMMMM",
"MMMMMMMh211,>+OMMMMMMM",
"MMMMMM+h211,,>OOMMMMMM",
"MMMMMM2vbvkh1,,oMMMMMM",
"MMMMM2> 8gt0g8 ooMMMMM",
"MMMMM o*ucw9cu*ooMMMMM",
"MMMMMMo#eyttye#oMMMMMM",
"MMMMMMM#0eq9e0#MMMMMMM",
"MMMMMMM 6yzzy# MMMMMMM",
"MMMMMM   &777   MMMMMM",
"MMMMM< m1 @9 1b  &MMMM",
"MMM88<+1b    b155884MM",
"MM*er9<$ >4.4 59eee84M",
"MM8r9w+<5rr6eeeew780*M",
"MMer*99++5w6w553*7#70*",
"Mwr7#3q5o+5$w5ww**#6w*",
"Mwr4o#7r5o++5*66#*.6w$",
"Mrrw&.&qe5 o+5*#*..ww4",
"0rr6&.$qe%5  o+5*..%60",
"7r7....37%w$8   ..Xww0",
"7rrr..+1,+nljo+oo XX60",
"0w47$.+1,+22>o+oo X6%6",
"Mww7$..#333$3%##.X&ww6",
"Mww4..59ww8$7885$.&6ww",
"Mw6X.59www8$7885&@.X&&",
"MMuq.5wwww8$78853@.quM",
"MMxx 5wwqw8$78853@.xwM",
"MMu3.%%%%%. .......3qM",
"MMMe#9w93#. #333&##qMM",
"MMMMX0w94&X #0833&#MMM",
"MMMM40w96&X &0883&#MMM",
"MMMM4rw96&. #3e83&#MMM",
"MMMM4rwe96& #&e83&#MMM",
"MMMM4rt9%6.o&60e3$#MMM",
"MMMM*6rwe&..6rte7@&MMM",
"MMMM&0w636$..64&$%@MMM",
"MMMM&0009$..&0e83.@MMM",
"MMMMM$33$....&4%@.@MMM",
"MMMMMo     M      MMMM",
"MMMMMo:--  M oooo MMMM",
"MMMMMoa:-o M a:oo MMMM",
"MMMMMo::-o M =a-o MMMM",
"MMMMMoa:-oMMM a-o MMMM",
"MMMMMMoa-oMMM a: MMMMM",
"MMMMMoaf:o M =ad: MMMM",
"MMMMoasi:o M ;-p;= MMM",
"MMMMooooo MMMooooo MMM"
};
