/* XPM */
static char *_0386_bd7367d753dd97affbceffa396b59bb6c681709f46c8a6067818edab17c2425b[] = {
/* columns rows colors chars-per-pixel */
"64 64 256 2 ",
"   c black",
".  c #1F170B",
"X  c #170F07",
"o  c #4B4B4B",
"O  c white",
"+  c #1B1B1B",
"@  c #131313",
"#  c #0B0B0B",
"$  c #070707",
"%  c #2F371F",
"&  c #232B0F",
"*  c #171F07",
"=  c #0F1700",
"-  c #4F3B2B",
";  c #473323",
":  c #3F2B1B",
">  c #FFB7B7",
",  c #F7ABAB",
"<  c #F3A3A3",
"1  c #EB9797",
"2  c #E78F8F",
"3  c #DF8787",
"4  c #DB7B7B",
"5  c #D37373",
"6  c #CB6B6B",
"7  c #C76363",
"8  c #BF5B5B",
"9  c #BB5757",
"0  c #B34F4F",
"q  c #AF4747",
"w  c #A73F3F",
"e  c #A33B3B",
"r  c #9B3333",
"t  c #972F2F",
"y  c #8F2B2B",
"u  c #8B2323",
"i  c #831F1F",
"p  c #7F1B1B",
"a  c #771717",
"s  c #731313",
"d  c #6B0F0F",
"f  c #670B0B",
"g  c #5F0707",
"h  c #5B0707",
"j  c #530707",
"k  c #4F0000",
"l  c #470000",
"z  c #430000",
"x  c #FFEBDF",
"c  c #FFE3D3",
"v  c #FFDBC7",
"b  c #FFD3BB",
"n  c #FFCFB3",
"m  c #FFC7A7",
"M  c #FFBF9B",
"N  c #FFBB93",
"B  c #FFB383",
"V  c #F7AB7B",
"C  c #EFA373",
"Z  c #E79B6B",
"A  c #DF9363",
"S  c #D78B5B",
"D  c #CF8353",
"F  c #CB7F4F",
"G  c #BF7B4B",
"H  c #B37347",
"J  c #AB6F43",
"K  c #A36B3F",
"L  c #9B633B",
"P  c #8F5F37",
"I  c #875733",
"U  c #7F532F",
"Y  c #774F2B",
"T  c #6B4727",
"R  c #5F4323",
"E  c #533F1F",
"W  c #4B371B",
"Q  c #3F2F17",
"!  c #332B13",
"~  c #2B230F",
"^  c #EFEFEF",
"/  c #E7E7E7",
"(  c #DFDFDF",
")  c gray86",
"_  c LightGray",
"`  c #CBCBCB",
"'  c gray78",
"]  c gray75",
"[  c #B7B7B7",
"{  c gray70",
"}  c gray67",
"|  c #A7A7A7",
" . c #9F9F9F",
".. c #979797",
"X. c #939393",
"o. c #8B8B8B",
"O. c #838383",
"+. c gray50",
"@. c #777777",
"#. c #6F6F6F",
"$. c gray42",
"%. c gray39",
"&. c #5B5B5B",
"*. c gray34",
"=. c gray31",
"-. c gray28",
";. c #434343",
":. c gray23",
">. c #373737",
",. c #2F2F2F",
"<. c #272727",
"1. c #232323",
"2. c #77FF6F",
"3. c #6FEF67",
"4. c #67DF5F",
"5. c #5FCF57",
"6. c #5BBF4F",
"7. c #53AF47",
"8. c #4B9F3F",
"9. c #439337",
"0. c #3F832F",
"q. c #37732B",
"w. c #2F6323",
"e. c #27531B",
"r. c #1F4317",
"t. c #17330F",
"y. c #13230B",
"u. c #0B1707",
"i. c #BFA78F",
"p. c #B79F87",
"a. c #AF977F",
"s. c #A78F77",
"d. c #9F876F",
"f. c #9B7F6B",
"g. c #937B63",
"h. c #8B735B",
"j. c #836B57",
"k. c #7B634F",
"l. c #775F4B",
"z. c #6F5743",
"x. c #67533F",
"c. c #5F4B37",
"v. c #574333",
"b. c #533F2F",
"n. c #9F8363",
"m. c #8F7753",
"M. c #836B4B",
"N. c #775F3F",
"B. c #675333",
"V. c #5B472B",
"C. c #4F3B23",
"Z. c #43331B",
"A. c #7B7F63",
"S. c #6F7357",
"D. c #676B4F",
"F. c #5B6347",
"G. c #53573B",
"H. c #474F33",
"J. c #3F472B",
"K. c #373F27",
"L. c #FFFF73",
"P. c #EBDB57",
"I. c #D7BB43",
"U. c #C39B2F",
"Y. c #AF7B1F",
"T. c #9B5B13",
"R. c #874307",
"E. c #732B00",
"W. c white",
"Q. c #FFDBDB",
"!. c #FFBBBB",
"~. c #FF9B9B",
"^. c #FF7B7B",
"/. c #FF5F5F",
"(. c #FF3F3F",
"). c #FF1F1F",
"_. c red",
"`. c #EF0000",
"'. c #E30000",
"]. c #D70000",
"[. c #CB0000",
"{. c #BF0000",
"}. c #B30000",
"|. c #A70000",
" X c #9B0000",
".X c #8B0000",
"XX c #7F0000",
"oX c #730000",
"OX c #670000",
"+X c #5B0000",
"@X c #4F0000",
"#X c #430000",
"$X c #E7E7FF",
"%X c #C7C7FF",
"&X c #ABABFF",
"*X c #8F8FFF",
"=X c #7373FF",
"-X c #5353FF",
";X c #3737FF",
":X c #1B1BFF",
">X c blue",
",X c #0000E3",
"<X c #0000CB",
"1X c #0000B3",
"2X c #00009B",
"3X c #000083",
"4X c #00006B",
"5X c #000053",
"6X c white",
"7X c #FFEBDB",
"8X c #FFD7BB",
"9X c #FFC79B",
"0X c #FFB37B",
"qX c #FFA35B",
"wX c #FF8F3B",
"eX c #FF7F1B",
"rX c #F37317",
"tX c #EB6F0F",
"yX c #DF670F",
"uX c #D75F0B",
"iX c #CB5707",
"pX c #C34F00",
"aX c #B74700",
"sX c #AF4300",
"dX c white",
"fX c #FFFFD7",
"gX c #FFFFB3",
"hX c #FFFF8F",
"jX c #FFFF6B",
"kX c #FFFF47",
"lX c #FFFF23",
"zX c yellow",
"xX c #A73F00",
"cX c #9F3700",
"vX c #932F00",
"bX c #872300",
"nX c #4F3B27",
"mX c #432F1B",
"MX c #372313",
"NX c #2F1B0B",
"BX c #000053",
"VX c #000047",
"CX c #00003B",
"ZX c #00002F",
"AX c #000023",
"SX c #000017",
"DX c #00000B",
"FX c cyan",
"GX c #FF9F43",
"HX c #FFE74B",
"JX c #FF7BFF",
"KX c magenta",
"LX c #CF00CF",
"PX c #9F009B",
"IX c #6F006B",
"UX c #A76B6B",
/* pixels */
",.,.,.,.,.,.,.,.,.,.,.,.,.,.,.,.,.,.,.,.,.,.,.,.,.,.,.,.,.,.,.,.,.,.,.,.,.,.,.,.,.,.,.,.,.,.,.,.,.,.,.,.,.,.,.,.,.,.,.,.,.,.,.,.",
"*.*.*.*.*.*.*.*.*.*.-.) kXkXkXkXkXkXkXkX] ) kXkXkXkX) 1.>.o.| ] kXkXkXkXkXkXkXkXU.o.*.1.-.-.-.-.-.-.-.-.-.-.*.*.*.*.*.*.*.*.*.*.",
"*.*.*.*.*.*.*.*.*.*.-.) _ zXzXzXzXzXzX| ] _ ] zXzXzXo.1.>.o.] { o.U.+.+.Y.Y.Y.Y.+.*.>.1.>.#.Y.Y.Y.Y.T.T.+.#.%.-.-.-.-.-.-.-.-.-.",
"o.o.o.o.o.o.o.o.1.*.-.kX_ U.U.U.U.U.U.| _ ] ] Y.Y.U.%.1.>.| ) | o.+.o.+.R.T.T.T.+.*.>.1.>.Y.U.zXzXU.U.U.] { | Y.Y.Y.T.T.o.o.o.o.",
"_ U.U.U.{ | o.o.1.*.-.kX_ Y.Y.T.T.T.Y.| | | ..T.T.Y.*.1.>.o.] o.o.o.| | %.T.R.T.#.*.>.1.>.Y.zXU.Y.Y.Y.+.) U.zXzXzXU.U.U.U.+._ _ ",
"| | U.U.U.R.+.#.1.*.-.kX] Y.T.T.#.+.T.| ..Y.o.#.T.T.*.1.>.-.| U.| | o.o.+.E %.R.*.*.>.1.>.Y.zXY.Y.+.+.o.U.+.Y.Y.Y.Y.Y.Y.U.%.o...",
"{ ..R.U.Y.Y.R.#.1.-.-.kX_ Y.T.T.+.| T.....Y.o...#.T.E 1.>.-.+.U.o.U.o.| | #.%.R.>.>.>.1.R.T.U.Y.+.+.U.U.U.+.T.Y.Y.Y.T.T.%.%.U.+.",
"{ { +.Y.R.T.R.*.1.>.-.kX_ o.T.T.+.| T.o.+.T...| o.T.E Q >.-.R.T.| U.| o.o.o.| #.>.>.>.,.T.T.U.Y.+.o.U.U.Y.+.R.Y.Y.T.%.T.%.+.T.%.",
"..| | T.R.R.-.-.1.,.-.kX] | T.T.+.| R...o...o.o.| T.E Q Q -.E R.R.R.E >.>.>.>.>.>.>.1.E Y.E U.T.+.| Y.+.Y.+.+.T.Y.T.%.T.%.| +.%.",
"o.o.o.R.#.*.-.-.1.,.-.U.^ | Y.T.+.o...o.o.o.o.| o.T.*.,.Q E -.>.>.>.>.>.>.>.>.>.1.1.E U.T.E Y.R.o.Y.R...Y.+...R.T.T.%.R.%.o.| o.",
"#.#.#.#.*.-.>.>.1.,.-.U.) o.Y.T.+.+.o.o.| o.| o.| R.*.,.1.Q E >.,.,.1.1.1.1.1.,.,.E U.T.E R.T.E Y.T.o.| Y.+.o.#.T.R.%.%.%.%.%.%.",
"*.*.-.-.-.1.1.1.1.,.-.T.) | R.T.+.+.+.| ..o.o.+.o.#.%.>.1.Q Q E Q -.#.lXlX| | lXlXU.T.E Y.R.E o.R.R.%.%.R.*.*.*.R.-.-.-.-.-.-.-.",
"1.1.1.1.1.,.,.,.,.>.*.E ) _ o.R.o...Y.o.o.| +.o.Y.o.*.>.1.>.Q #.| lXlXU.U.) _ _ U.U.U.Y.E E o.#.%.%.*.-.E -.>.>.>.>.>.,.,.,.,.,.",
",.,.,.,.,.,.,.,.,.>.*.-.| _ o.| o.Y.T.#.o.o...o.T.%.*.>.1.,.>.| lXU.Y.U.U.#.o.| Y.#.E 1.>.>.>.>.>.>.>.>.>.>.>.,.,.1.1.1.1.1.1.1.",
">.>.>.>.>.>.>.>.>.>.*.-.o._ | o.| T.T.#.o.+.o.| T.*.*.>.1.,.-.| U.Y.+.U.U.%.o.o.Y.*.R.E >.,.,.,.,.,.,.,.,.,.,.>.>.>.>.>.>.>.>.>.",
"*.-.>.>.>.>.>.>.>.>.*.-.#.] o.| ..T.T.#.| o.| o.R.*.#.-.1.,.-.| U.T.+.o.U.U.+.o.T.*.E T.E -.*.*.*.*.1.-.-.-.-.-.-.-.-.-.-.-.-.-.",
"........Y.Y.Y.T...,.1.*.-.] ] T.o.T.R.T.#.o.o.o.#.%.*.*.1.1.-.| U.T.+.| U.Y.#.o.R.*.>.R.Y.U.U.U.T.*.-.*.+.......................",
"_ _ _ U.U.U.Y.R.#.>.1.*.-.o.] R.%.T.%.T.T.#.| o.#.o.#.-.1.1.-.| U.T.+.o.Y.R.%.| o.*.>.1.>.U.U.Y.T.1.-.+.] U.U.U.) zXzXzXzXzXzX) ",
"| ..o.U.Y.Y.Y.R.#.>.1.*.-.#...%.%.T.%.R.R.*.o.#.*.#.*.-.1.1.-.| T.+.o.#.R.R.%.*.*.*.>.1.>.Y.T.Y.T.1.-...U.U.U.+.Y.Y.Y.Y.Y.Y.T.#.",
"| o.| U.Y.Y.Y.R.#.>.1.-.*.-.....#.T.%.E E *.#.*.#.*.-.,.1.1.,.| o.#.o.#.E >.>.>.>.>.>.1.%.Y.T.T.*.1.-...U.U.+...Y.Y.Y.Y.Y.Y.T.#.",
"| U.o.U.Y.Y.Y.R.*.>.1.-.*.-.%.*.*.Q Q Q Q Q >.,.1.1.1.1.1.1.,.o.#.>.>.>.1.1.1.1.1.1.1.1.%.Y.T.R.*.1.-...U.+.o...Y.Y.Y.Y.Y.Y.T.*.",
"| Y.| U.Y.Y.Y.R.*.>.1.-.*.-.,.,.,.,.1.1.1.1.1.1.1.1.1.1.1.1.,.>.*.>.1.1.1.1.,.,.,.,.,.,.o.Y.T.E *.1.-.o.U.+.| ..| ..Y.T.T.Y.R.*.",
"o.Y.+.+.Y.T.Y.R.*.>.1.>.*.*.-.>.1.1.1.1.1.1.1.1.-.-.-.-.-.-.-.o.o...U.U.U.U.U.+.*.,.>.%.] Y.T.R.%.1.-.o.U.+.o...o.Y.Y.E T.Y.R.*.",
"o.T.+.+.Y.R.R.%.-.>.1.>.o.U.U.U.U.U.U.+.o.%.>.-.%.Y.U.U.U.U._ U.U.Y.U.U.U.Y.Y.Y.T.1.>.+.) Y.T.T.#.1.-.+.Y.+...o.| Y.Y.E +.Y.R.*.",
"o.o.| | Y.R.o.%.-.>.1.>.U.U.U.U.U.U.U.#.+.>.*.-.Y.U.U.#.U.Y.U.Y.T.T.Y.Y.Y.T.Y.T.R.1.>.o.) Y.T.R.T.1.-.T.Y.+.| ..Y.Y.R.E | R.E *.",
"..| o.o.R.o.#.*.>.>.1.>.U.Y.T.T.T.T.T.R.%.1.*.-.Y.U.U.o.Y.T.T.T.T.T.T.T.T.R.R.R.E 1.>.o.^ Y.T.E R.1.-.Y.E #.%.T.T.T.R.E #.#.*.*.",
"%.%.%.%.%.*.-.>.>.>.1.>.U.T.T.T.T.T.T.R.%.1.-.-.Y.U.U.U.Y.R.+.T.R.T.T.T.T.R.*.R.E 1.>.o.^ Y.T.Q R.1.-.E >.>.-.E E E E -.-.*.*.*.",
"*.-.-.>.>.>.1.1.1.1.,.>.U.T.T.T.T.T.T.R.%.1.-.-.Y.U.U.T.Y.R.| T.%.T.T.R.T.R.%.R.Q 1.>.o.^ Y.T.E E 1.R.>.1.1.1.1.1.1.1.1.1.>.>.-.",
"1.1.1.1.1.1.,.,.,.-.-.-.U.T.R.%.T.T.T.R.%.1.>.-.Y.U.U.R.Y.R.o.T.#.T.T.%.T.R.%.E Q 1.>.Y.^ Y.T.E *.1.R.R.>.>.>.>.>.>.1.1.1.1.1.1.",
"-.%.%.#.o...o.o.o.o.-.1.U.T.%...T.T.T.R.%.Q 1.-.T.U.U.o.Y.R.+.T.Y.T.T.#.T.R.%.E Q 1.>.Y.^ Y.T.E *.1.R.Y.Y.T.R.*.R.R.R.R.Q >.>.>.",
"%.o.{ U.U.U.U.U.U.| #.1.U.T.%.o.R.T.T.R.%.Q 1.-.T.Y.Y...Y.R.o.T.T.T.R.#.T.R.#.E Q 1.R.Y.) Y.T.E *.1.-.R.Y.Y.Y.U.U.T.T.-.-.-.-.*.",
"%.{ U.U.T.T.T.T.T.| -.1.T.E %.| +.T.T.R.%.Q 1.-.+.T.R.| T.o.+.R.T.T.R.#.T.R.#.E Q E >.Y.) Y.T.E *.1.-.#.Y.R.Y.Y.Y.U.U.U.T...>.*.",
"%.U.Y.T.T.R.R.T.T.E #.1.^ ..| ..| T.T.R.%.Q 1.>.*.R.^ | | ..o.#.T.T.#.+.T.R.#.*.>.,.>.Y.) Y.T.E *.1.-...#.#.Y.Y.T.T.R.R.R.+.>.*.",
"%.U.Y.T.R.%.#.T.T.E #.1.^ ..o...| T.T.R.%.Q 1.,.*.| ^ | T.| T.o.R.T.+.+.T.T.Y.-.,.,.R.o._ R.T.E *.1.-.) | | Y.R.T.T.E %.#.%.>.-.",
"%.U.Y.T.R.#.o.U.T.E *.1.) | | | ..T.T.E %.Q 1.,.*.o.^ ] T.T.R.o.#.T.o.| Y.T.E -.1.E Y.o._ | T.R.Q 1.-._ | o.Y.R.%.T.E %...%.>.-.",
"%.U.Y.T.R.#.U.Y.T.E *.1.) ] +...+.T.T.E %.Q 1.1.-.#._ ] T.R.+...o.R...U.Y.R.E >.1.E -.o._ o.R.E Q 1.-.] | | Y.R.#.T.E #.| *.>.-.",
"%.T.Y.T.T.T.T.T.T.E *.1.] ) o...| R.T.E %.Q Q 1.-.*.{ ) R.o.| o.| o.T.Y.R.R.E >.1.>.-.+.| +.R.Q E >.-.| | o.Y.T.#.T.E #...*.>.>.",
"%.) T.R.T.R.T.T.T.E *.1.{ ) +.| o.o.T.E %.Q Q 1.>.*.o.] | o.+.T.R.E E E E E Q >.1.>.-.*.>.>.E E -.E E #.*.-.*.*.*.*.*.*.*.*.>.>.",
"%.) { o.T.| T.T.T.E *.1...) ..+.| | T.E %.*.Q 1.>.*.-.o.o.T.E E E E 1.Q R.E Q 1.1.>.-.*.-.R.R.E R.*.*.1.1.1.1.1.1.1.1.1.1.1.1.>.",
"%.) { o.T...T.R.T.E *.1.+.) Y...| o.T.E %.*.Q 1.,.-.-.>.,.,.,.1.1.R.,.,.R.R.E Q ,.>.-.*.R.R.E -.E T.R.E -.-.>.>.>.>.>.>.>.>.>.>.",
"%.) { | R.o.T.E T.E *.1.*.^ T.| o.o.T.E %.*.E 1.,.-.-.-.>.>.>.>.>.T.-.-.Q T.T.R.R.R.T.T.R.E +.+.+.R.T.Y.Y.Y.+.+.+.+.+.+.+.+.>.*.",
"%.) { o.o.| T.R.T.E *.1.-.^ T.o.Y.+.T.E %.*.E Q ,.>.%.+.+.+.+.+.+.U.T.+.+.E T.Y.U.Y.T.R.| { { ] ] U.U.U.U.U.U.U.U.U.U.T.] +.>.*.",
"%._ { | | ..T.R.T.E 1.,.-.^ R.o.T.o.T.E %.*.E E 1.>.U.] ] ] ] ] U.U.U.Y.] ] U.U.U.U.U.U.U.U.U.U.U.U.U.U.U.U.U.U.U.U.U.U.T.%.,.-.",
"%._ { Y.| o.T.R.E *.1.,.-.^ o.| R...T.E %.*.E R.Q 1.U.zXzXzXzXzXzXzXzXzX| ^ ) U.U.U.U.U.U.U.U.U.U.U.U.U.U.U.U.U.U.Y.T.T.+.*.,.-.",
"%.] { Y.o.| T.R.o.*.1.>.-.) | | Q | T.E %.*.Q E R.T.Y.U.zXY.Y.Y.Y.Y.Y.Y.T.o.| ] Y.Y.Y.Y.T.R.R.R.T.Y.Y.Y.Y.Y.Y.Y.Y.T.#.#.#.*.,.>.",
"-.] o.Y.| o.R.E #.*.1.>.-._ o.o.| o.T.E %.*.>.E R.R.E o.o.o.Y.T.Y.Y.T.Y.T.#.| | Y.T.Y.Y.R.#.#.#.T.Y.Y.Y.T.Y.#.Y.T.R.#.o.#.*.,.>.",
"-.{ | Y.T.o.*.*.*.1.,.>.-.{ | o.o.| R.Q %.*.>.E R.E Q ] ) ] Y.R.Y.Y.R.Y.T.#.| o.Y.R.Y.T.R.#.o...o.T.Y.Y.R.Y.o.Y.R.R.+.| #.*.,.>.",
"-.+.+.T.R.*.*.*.*.1.,.>.-.....| o.o.o.#.%.*.>.Q E R.,.{ ) _ Y.R.Y.Y.R.Y.R.#.Y.| R.#.Y.R.#.+.o.o.| o.Y.T.R.Y.U.Y.R.%.o...#.*.1.>.",
"-.>.1.R.E *.*.*.*.1.>.-.-.+.%.%.%.%.%.%.*.*.>.1.Q E R.| ) _ Y.R.Y.Y.R.T.E #.Y.R.+...Y.R.#.o.U.U.o.| Y.R.#.T.R.Y.R.%.+.+.#.*.1.>.",
"*.*.*.T.E 1.1.,.1.,.>.-.>.>.>.>.>.>.>.>.>.>.>.1.1.Q Q o._ { Y.R.T.T.R.E E #.R.R.#...Y.R.#.| T.R.#.o.Y.R.#.R.+.T.R.%.+.+.#.*.1.>.",
"-.-.-.Y.R.R.-.,.,.,.>.-.>.>.1.1.1.1.1.1.1.1.1.1.1.1.,.o...#.T.#.E E #.#.#.o.| #.#.o.T.R.#.o.R.R.%.| T.R.#.+.| R.E %.o...#.*.1.>.",
"-.+.| U.U.U.Y.o.%.-.-.*.>.>.,.,.,.,.,.,.,.,.,.,.,.,.>.*.-.>.E ,.,.,.,.,.*.#.#.+.o.+.R.E #.+.+.%.%.+.R.E %.+.+.+.%.%.+.+.%.*.1.>.",
"-.| U.zXzXzXzXzXY.Y.| o.#.%.*.-.>.>.>.>.>.>.>.>.>.>.-.*.-.-.>.>.>.>.>.>.,.-.*.*.*.*.E E *.*.*.*.*.*.E E *.*.*.*.*.*.*.*.*.1.,.>.",
"-.| U.zXU.o.U.U.U.U.U.zXzXzXzXzXzXzXzXzXzXzXzX+.+.#.%.%.*.*.-.-.-.-.-.>.>.,.,.,.,.,.Q Q ,.,.,.,.,.,.Q Q 1.1.1.1.1.1.1.1.1.,.>.-.",
"-.| U.zXU.o.U.U.U.T.%.U.U.U.U.U.U.U.U.U.U.U.U.U.T.o.] | | | | | o.-.*.-.>.>.>.>.>.R.E >.>.,.,.,.,.,.E Q ,.,.,.,.,.,.,.,.>.>.-.-.",
"-.| U.zXU.o.U.U.U.T.%.+.U.U.U.o.U.U.U.R.T.U.U.U.T.+.] ) ) ) _ ] +.>.-.*.-.-.-.>.T.R.>.>.>.>.>.>.>.>.R.E >.>.>.>.>.>.>.>.-.-.-.*.",
"-.| _ zXU.o.U.| U.T.%...U.U.U.U.U.U.U.T.+.U.U.U.T.+.| o.| | | +.%.1.>.*.-.T.U.U.U.%.-.-.-.*.*.*.R.U.Y.T.R.R.E -.-.-.-.-.*.*.*.*.",
"-.| ] | U.+.+.+.U.R.%.| U.U.T.U.o.U.U.T.+.U.R.U.T.+.| o.| | | %.*.1.>.-.-.U.T.T.T.%.) ) { *.*.Y.U.U.U.U.U.U.Y.R._ ] { ..+.-.-.*.",
"-.| o.%.%.%.%.%.T.E %.%.T.E %.%.%.T.E %.%.E T.T.R.%.%.%.%.%.%.*.*.>.1.>.-.%.T.T.R.%.{ { { %.*.U.Y.T.Y.Y.Y.T.T.Y.R.| o.| ) ..1.*.",
"-.o.%.>.>.>.>.>.E >.>.>.E >.>.>.>.E E E E E E E >.>.>.>.>.>.>.>.>.>.1.,.-.{ T.R.%...%...o.%.-.U.T.%.Y.T.%.T.%.T.R.o.| o.| *.1.*.",
"-.>.1.1.1.1.1.1.1.1.1.1.1.1.1.1.Q Q Q Q Q Q Q Q Q 1.1.1.1.1.1.1.1.1.1.,.-.>.Q E *.%.%.%.%.%.-.%.%...Y.T.%.%.+.T.R.| | o.o.*.1.*.",
"*.-.>.>.>.,.,.,.,.,.,.,.,.,.,.,.,.,.Q Q ,.,.Q Q ,.,.,.,.,.,.,.,.,.,.,.,.>.*.Q Q >.1.1.1.1.1.>.*.*.*.R.E *.*.*.R.E *.*.*.*.*.1.*.",
"*.*.*.*.-.-.-.-.-.-.-.-.>.>.>.>.>.>.E E >.>.E E >.>.>.>.>.>.>.>.>.>.>.>.>.*.*.*.*.>.>.>.>.>.>.*.*.1.Q Q 1.1.1.Q Q 1.1.1.1.1.1.*.",
">.>.>.>.>.>.>.>.>.>.>.>.>.>.>.>.>.>.>.>.>.>.>.>.>.>.>.>.>.>.>.>.>.>.>.>.>.>.>.>.>.>.>.>.>.>.>.>.>.>.>.>.>.>.>.>.>.>.>.>.>.>.>.>."
};
