/* XPM */
static char *_6098_b60c3a139a024db0cfaaaa81e6aaf6cc401d10ed1e96f4ba5ed0dbced06a0e12[] = {
/* columns rows colors chars-per-pixel */
"128 128 25 1 ",
"  c #1F0000",
". c gray12",
"X c #2B0000",
"o c #370000",
"O c #232323",
"+ c #2F2F2F",
"@ c gray20",
"# c #373737",
"$ c gray23",
"% c #430000",
"& c #4B0000",
"* c #570000",
"= c #630000",
"- c #770000",
"; c #434343",
": c #4B4B4B",
"> c gray34",
", c #5B5B5B",
"< c #676767",
"1 c gray45",
"2 c gray50",
"3 c #830000",
"4 c #8F0000",
"5 c #9B0000",
"6 c #9F0000",
/* pixels */
"+++++++++++++++++++++++++++++++++++++++++++++++++++++++++++++++++++++++++++++++++++++++++++++++++++++++++++++++++++++++++++++++$",
"$$$$$$$$$$$$$$$$$$$$$$$$$$$$$$$$$$$$$$$$$$$$$$$$$$$$$$$$$$$$$$$$$$$$$$$$$$$$$$$$$$$$$$$$$$$$$$$$$$$$$$++++++$$$$$$$$$$$$$$$$$$$$",
">>$$>>::::::::::>>::::::::::::>>::$$::::::::::::::>>>>>>>>>>>>::::::::::::::;;;::::::::::::::::::;;;;$$####$$:::>>>>::::::::::$$",
">>$$>>::::::::::>>::::::::::::>>::$$::::::::::::::>>>>>>>>>>>>::::::::::::::::::>>>>>>>>>>>>>>>>::::::$$++$$::>>>>>>>:::::::::$$",
"=&*%=%==&=&=&&=&*=%=%=%*=:::::>>:3=&*=&=&=&=&&=&*%=%==*&=&&=%**=**&=&****$:::::>:3=&*=&=%%%%%%%%%%&%&%&%&%%%%%&%%&%&&&*%=&=&*%=%",
"-=3==3==3=33==-=3==3=-=3=&O:::><553--3=33=33==-=3==3==3=3-=====3*3=3=3==%X$$::>:553--3=33=33==-=3==3==3=3--=3======33=3=-=-=3==3",
"=%=o=&===*==*%=%==o=&o**%oO+::><5==**=%==*==*%=%=o=&=====*%=***=%=%==*&=%X+$:>>$5==**=%==*==*%=%=o=&=====*=%**%=***==%=o=%=%=o=&",
"*%*o*o=**=*=%%*%*=*=o=o=oXO+::><53=%=*%=*=*=%%*%*o*o=*=*=%%=o&=*%=*=*=&=%X+$::>$53=%=*%=*=*=%%*%*o*o=*=*=%*o=*%=o&=**%*o*%*%*%*%",
"%*=*o=**%=%=*%%*=*o=%o*&oXO+::><33*%=%*&%=%=*%%*=*o=**=%=*=**o*=X=o*%**&%X+$::>:33*%=%*&%=%=*%%*=*o=**=%=**%=o=**o*=%*&*%*%*=%%=",
"*%=o=&==**==*=*%==**o*o=oXO+:><<33=*=*%=**==*=*%=o=&==*==*%=o&=o==*===&*%X+$:>>:33=*=*%=**==*=*%=o=&==*==*=o**%=o&=o=%&o*%*%&%%&",
"=%*o=o==%=%=%%=%*=o=o=o*oXO+:><<3==%*=%=%=%=%%=%*o=o==*%=%%=o&*=**%=%*&=%X+$:>>:3==%*=%=%=%=%%=%*o=o==*%=%=o=o%=o&*=%%**=%=%*%&%",
"*%=o*=**=*==*%*%=*o=o*o=oXO+:><<3==**=%==*==*%*%=o*=**=*=*%&*o%=X=&=*=&=%X+$:>>:3==**=%==*==*%*%=o*=**=*=**%=*%&*o%==%%**%*%&o*=",
"%=%*o=o*=*==*=%=%o=o*o*%oXO+:><<3==**=%==*==*=%=%*o=o*=*=%%*o&=*%=*=*=&=%X+$:>>:3==**=%==*==*=%=%*o=o*=*=%*o=*%*o&=*==%*&*%&*X%=",
"%*%=o*==*=*=%*%*%&*o*&*%oXO+:><<3==%=*%=*=*=%*%*%=o*==*%=*=&*o*=X=o*%**&%X+$:><:3==%=*%=*=*=%*%*%=o*==*%=**%=o=&*o*=**%*&*%**%%*",
"*=%=**o*%=%=***=%%*=X=o*oXO+;:><3=*%=%*&%=%=***=%=**o**==*%*o&=o==*===&*%X+$:><:3=*%=%*&%=%=***=%=**o**==*=o**%*o&=o%=%=&=%&*%%*",
"o*=%=o*%**==*=o*=%=o*=*&oXO+;:><33=*=*%=**==*=o*=%=o*%=%=%%=o&*=**%=%*&=%X+$:><:33=*=*%=**==*=o*=%=o*%=%=%=o=o%=o&*==*%=&=*=*X%*",
"&=%%=o**%=%=%=&=%%*=**%&oXO+;;><33=%*=%=%=%=%=&=%%=o**=*=*%&*o%=X=&=*=&=%X+$:><:33=%*=%=%=%=%=&=%%=o**=*=**&=*%&*o%=%=%=&=%&*X%*",
"*==%**o%*=*=***==o%&X& XoXO+$;><33=%=%*&*=*=***==%**o%==&&==*%==&&==%%==%X+$:><:33=%=%*&*=*=***==%**o%==&&==&%==*%==*=%=&=%%*X%*",
"%%%%%%%%%%%%%%%%& o X o  XO+$;::=&%%%%%%%%%%%%%%%%%%%%%%%%%%%%%%%%%%%%%%%X+$:><:=&%%%%%%%%%%%%%%%%%%%%%%%%%%%%%%%%%%%& XXXX  XXX",
"XXXXXXXX%%%%%%%%% oX%ooX OO+$;::$%XXXXXXXXXXXXXXXXXXXXXXXXXXXXXXXXXXXXXXXO+$:><:$%XXXXXXXXXXXXXXXXXXXXXXXXXXXXXXXXXXXoXXXoXoXXXo",
"OOOOOOOOOOOOOOOOOOOO..OOOO++$;:>:::$$++OOOOOOOOOOOOOOOOOOOOOOOOOOOOOOOOO+++$:>1:$OOOOOOOOOOOOOOOOOOOOOOOOOOOOOOOOOOOOOOOOOOOOOO+",
"####################++++++##$;:><12221<>$$##+++++++++#$$###++++++#$$$$$$$$$$><1>:$$#########$$$$$$$$$#######+++++++##$$######+++",
">:;$$$$$$$;;;;;;;;$########$;;;;><111<>:;;;;;:$$$$$$:::::::$$$$$$;;;;;:::::><<2<>>::;;$$$;:>,,<,>>::::::::;;$++++$$$:>>:::::>>>>",
">>$$$$$$$$::::::::$$$$$$$$$$;:$$::<1<>:::::::::$$$$::>::::::$$$$::::::::::><<221<<>>:::$:>,<1221<,>>>>::::;;$+++$:$:><<>::::>>>>",
"=%=%=%**%*==&*%=&=&*%=%=%=%=%*=$::<1<::3=&*=&=&=&=&&=&*%=%=%=%-====%**==&*%=%=%=%=%*==&*%=&=&*%=%=%=%=%*=$::;$++:3=&*=&=&=&=&&=&",
"==3=-=3==3--=3=-=-=3==3==3=-=3=&::>1<:553--3=33=33==-=3==3==3===---=3=&-33==3==3=-=3--=3=-=-=3==3==3=-=3=&::;;$+553--3=33=33==-=",
"=o=&o%*&**&=%=o=%=%=o=&=o=&o**%o$;><<>5==**=%==*==*%=%=o=&=o=&&&-&-**&&=%=o=&=o=&o**&=%=o=%=%=o%&=o=&o**%o$$::$+5==**=%==*==*%=%",
"=*=o=o=&o=X=%*o*%*%*%*%=*=o=o=oXO$:<,>53=%=*%=*=*=%%*%*o*o=*=o&&=o=o=&-*%=o*o=*=o=o=X=%*o*%*%*%*%=*=o*o=oX$$::$+53=%=*%=*=*=%%*%",
"*o=%o%%&**%**&*%*%*=%%=*o=%o*&oXO@:<,:33*%=%*&%=%=*%%*=*o=*o=%&&=%=*&&&**=*o=*o=%o**%**&*%*%*=%%=*o=%**&oXO$::$+33*%=%*&%=%=*%%*",
"=**o*o=*o=o*%&o*%*%&%%&=**o*o=oXO@;,,:33=*=*%=**==*=*%=o=&=**o&&*%*o=*&*%=o=&=**o*o=o*%&o*%*%&o*%=**o*o=oXO$::$$33=*=*%=**==*=*%",
"=o=o=o*&o*o=%**=%=%*%&%=o=o=o*oXO@;,,:3==%*=%=%=%=%%=%*o=o=o=o&o=o=o*&&=%*o=o=o=o=o*o=%**=%=%*o%%=o=o=o*oXO+;;$$3==%*=%=%=%=%%=%",
"*o*o*o=&o=o*%%**%*%&o*=*o=o*o=oXO@;,>:3==**=%==*==*%*%=o*=*o=o*o=o*&=&&*%=o*%*o=o*o=o*%%**%*%&o%%*o*o=o=oXO+;>:$3==**=%==*==*%*%",
"o%*o=*%***o*=%*&*%&*X%=o=o*o*%oXO@;,>:3==**=%==*==*=%=%*o=o=o*o=o*o&&**%&%*o&*%*o***o*=%*&*%o*o*%%%*o=*%oXO+$>::3==**=%==*==*=%=",
"=**o&*%=**o**%*&*%**%%*&*o*&*%oXO@;>>:3==%=*%=*=*=%*%*%=o*=*o*=*o*&&&&*%&%&o%=%*o&**o**%*&*%o***%*X*o&**oXO+$>::3==%=*%=*=*=%*%*",
"o**X=o*%o*X*=%*&=%&*%%*%*=X=o*oXO@;>>$3=*%=%*&%=%=***=%=**o*=Xo*&&=o*&**&%&*%*%=X=o*X*=%*&=%o*o%X=X*o=o*oXO+$>>:3=*%=%*&%=%=***=",
"*=**=%==*=o**%*&=*=*%%*%=o*=*&oXO@;,>$33=*=*%=**==*=o*=%=o*=o**=&*=*=&=o&=%=%*%o*=*=o**%*&=*o*o%X=%*o=o&oXO+$>>:33=*=*%=**==*=o*",
"*%=%*%=%%=&*=%*&=%&**%*%*=**%&oXO@;,,$33=%*=%=%=%=%=&=%%=o**=***=**%=&*&&&%=%*%=**%=&*=%*&=%o*X%X=%*o*%*oXO+;><>33=%*=%=%=%=%=&=",
"o%=%=%=*&=&*=%*&=%%**%*o%&X& XoXO@:>>$3==%=%*&*=*=***==%**o%=X=%=&=&=*=*%%%=o=%=X=&=&*=%*&=%%*X%X=%*X* *oXO+;><>33=%=%*&*=*=**&=",
"%%%%%%%%o&Xo& XXXX  XXX o X o  XO$:>>$=&%%%%%%%%%%%%%%&&&&******&&&&&%%%%%X X o&X&o&Xo& XXXX  XXX o X o  XO+:><>=&*%*%&%*&%*%*%%",
"XXXXXXXXoXoooXXXoXoXXXo oX%ooX O$$::>$O%%%%%%%%%%%%%%%%%%%ooooXoXoXoXoXooXXXoXoXoXoXoooXXXoXoXXXo oX%ooX OO+:><>$=%%XX%XXXXXX%XX",
"++++++OO++++++OOOOOO++++++OOOOO+$$:><:$OOOOOOOOOOOOOOOOOOOOOOOOOOOOOOOOOOOOOOOOOOOOOOOOOOOOOOOOOOOOOOOOOOO+$:<<>:$+OOOOOOOOOOOOO",
"+#####++######++++++######++++#+$$:><>::$$$################$$$$$$$######++++++++++########++++++#########+$:><1<::$$$++$+$$#$:$+",
">:::;$###$;;:;$$;;$$;;;;$######$;;><1>:;::::;;$$;;$$;;$$;><11<<>>>::>>::;;$+++$$;;;;::::>>;;$$$$;;::::::>>::<121<>>>:;;;>>::::::",
">>>>::$$$$::>>$$>>$$::::$$$$$$$$:><11<>:::::;;$$;;$$;;$$;:><1<>:>:$$:>>:;;$$$$$$;;;;::::>>;;$$$$;;::::::>>:<11221<>>>:;;>>::::::",
">>>3=&*=&=&=&=&&=&*%=%=%=%=%=%**%*==&*%=&=&*%=%=%=%=%*=:::><<>>3=&*=&=&=&=&&=&*%=%=%=%-%**==&*%=%=%=%=%*==&*%=&=&*%=%=%=%=%*=$::",
">>553--3=33=33==-=3==3=3==3=-=3==3--=3=-=-=3==3==3=-=3=&::>><:553--3=33=33==-=3==3==3===3=&-33==3==3=-==--=3=-=-=3==3==3=-=3=&$:",
">>5==**=%==*==*%=%=o=&=&=o=&o%*&**&=%=o=%=%=o=&=o=&o**%o$$::>>5==**=%==*==*%=%=o=&=o=&&**&&=%3o=&=-=%=%*&=%=o=%=%=o=&=o=&o**%o+$",
">>53=%=*%=*=*=%%*%*o*o=o=*=o=o=&o=X=%*o*%*%*%*%=*=o=o=oXO$::>>53=%=*%=*=*=%%*%*o*o=*=o&o=&-*%=o*o=*=%=o=X=%*o*%*%*%*%=*=o=o=oX++",
"$$33*%=%*&%=%=*%%*=*o=*=*o=%o%%&**%**&*%*%*=%%=*o=%o*&oXO+::,:33*%=%*&%=%=*%%*=*o=*o=%&*&&&**=*o=*o===o*%**&*%*%*=%%=*o=%o*&oXO+",
"$$33=*=*%=**==*=*%=o=&=&=**o*o=*o=o*%&o*%*%&%%&=**o*o=oXO+::,:33=*=*%=**==*=*%=o=&=**o&o=*&*%=o=&=**o*o=o*%&o*%*%&%%&=**o*o=oXO+",
"::3==%*=%=%=%=%%=%*o=o=o=o=o=o*&o*o=%**=%=%*%&%=o=o=o*oXO+:><:3==%*=%=%=%=%%=%*o=o=o=o&o*&&=%*o=o=o=o=o*o=%**=%=%*%&%=o=o=o*oXO+",
"::3==**=%==*==*%*%=o*=*=*o*o*o=&o=o*%%**%*%&o*=*o=o*o=oXO+:><:3==**=%==*==*%*%=o*=*o=o*&=&&*%=o*%*o=o*o=o*%%**%*%&o*=*o=o*o=oXO+",
"::3==**=%==*==*=%=%*o=o=o%*o=*%***o*=%*&*%&*X%=o=o*o*%oXO+:>,:3==**=%==*==*=%=%*o=o=o*o&&**%&%*o&*%*o***o*=%*&*%&*X%=o=o*o*%oXO+",
"::3==%=*%=*=*=%*%*%=o*=*=**o&*%=**o**%*&*%**%%*&*o*&*%oXO+:>,:3==%=*%=*=*=%*%*%=o*=*o*=&&&*%&%&o%=%*o&**o**%*&*%**%%*&*o*&*%oXO+",
">>3=*%=%*&%=%=***=%=**o*o**X=o*%o*X*=%*&=%&*%%*%*=X=o*oXO+::>$3=*%=%*&%=%=***=%=**o*=Xoo*&**&%&*%*%=X=o*X*=%=&=%&*%%*%*=X=o*oXO+",
">>33=*=*%=**==*=o*=%=o*o*=**=%==*=o**%*&=*=*%%*%=o*=*&oXO+$:,$33=*=*%=**==*=o*=%=o*=o***=&=o&=%=%*%o*=*=o**%=&=*=*X%*%=o*=*&oXO+",
"::33=%*=%=%=%=%=&=%%=o*o*%=%*%=%%=&*=%*&=%&**%*%*=**%&oXO+$:,$33=%*=%=%=%=%=&=%%=o**=**%=&*&&&%=%*%=**%=&*=%=&=%&*X%*%*=**%&oXO+",
"::33=%=%*&*=*=***==%**o*o%=%=%=*&=&*=%*&=%%**%*o%&X& XoXO+$:,$3==%=%*&*=*=***==%**o%=X=&=*=*%%%=o=%=X=&=&*=%=&=%%*X%*o%&X& XoXO+",
"::=&%%%%%%%%%%%%%%%%%%%%%%%%%%%%o&Xo& XXXX  XXX o X o  XO+$::$=&%%%%%************%%%%% o%X%oo%X X o&X&o&Xo& XXXX  XXX o X o  XO+",
"::$%%%%%%%%%%%%%%%%%%%oXXXXXXXXXoXoooXXXoXoXXXo oX%ooX OO+$::$+%%%%%%%%%%%%%%%%%%%ooooXoXoXooXXXoXoXoXoXoooXXXoXoXXXo oX%ooX OO+",
":::+OOOOOOOOOOOOOOOOOOOOOOOOOOOOOOOOOOOOOOOOOOOOOOOOOOOOO+$:::+++OOOOOOOOOOOOOOOOOOOOOOOOOOOOOOOOOOOOOOOOOOOOOOOOOOOOOOOOOOOOOO+",
"::::$++++++++++++++++++++++++++++++#####$$$$$#########++++;>>::$+++++++++++++++########$OO++$$$$$$++OOOOOO++++++++OO++++++++++++",
">>>>>:;;;;;$$$$$$$$$:><<111<>>>>::::::;;;;:>>:;$::$:>:$$$:><<>::::::>::$>>::>>:>><121<>:;;::>>>>::::;;$$;;:::$$:>:$$:>:::::::>>>",
">>>>>>>>>>::::$$::$$$:><<<<><<<<>>>>>>>>:><11<>>>>:><>:$:><11<>:::::::$$:>::>>::>><1<>::;;::><<>::::;;$$;;::$$$:>:$$:>:::::::>>>",
"==&*%=&=&*%=%=%=%=%*=$:><<>:>3=&*=&=&=&=&&=&*%=%=%=%=%**%*==&*%=&=&*%=%=%=%=%*=::>>1<>:3-=====***=&&=&*%=%=%=%=%=**=*&=&=%=%&=%*",
"--=3=-=-=3==3==3=-=3=&$:><::553--3=33=33==-=3==3==3=-=3==3--=3=-=-=3==3==3=-=3=&::><>>553--3333=33==-=3==3==3=-=3=3=3=3--=3=====",
"&=%=o=%=%=o=&=o=&o**%o+:>,:$5==**=%==*==*%=%=o=&=o=&o%*&**&=%=o=%=%=o=&=o=&o**%o$$:<>>533--====*==*%=%=o=&=o=&o%=**====*=%**%=**",
"X=%*o*%*%*%*%=*=o=o=oX+$>,:$53=%=*%=*=*=%%*%*o*o=*=o=o=&o=X=%*%*%*%*%*%=*=o=o=oXO$:<>:533==*==*=*=%%*&*o*o=*=o=o*&=*=*=%*o=*%=o&",
"%**&*%*%*=%%=*o=%o*&oX+$>,:$33*%=%*&%=%=*%%*=*o=*o=%o%%&**%**&*&&%*=%%=*o=%o*&oXO$:>>:333==**&%=%=*%%&=*o=*o=%o%=&=*=%=**%=o=**o",
"o*%&o*%*%&%%&=**o*o=oX+$>,:$33=*=*%=**==*=*%=o=&=**o*o=*o=o*%&*=&*%&%%&=**o*o=oXO$:>>:33-*=*==**==*&%&=o=&=**o*o*=*=*==*=o**%=o&",
"o=%**=%=%*%&%=o=o=o*oX+$:>:$3==%*=%=%=%=%%=%*o=o=o=o=o*&o*o=%***%=%*%&%=o=o=o*oXO$:>>:4-==*=*=%=%=%%&%*o=o=o=o=o=&*=*%=%=o=o%=o&",
"o*%%**%*%&o*=*o=o*o=oX+$:>:$3==**=%==*==*%*%=o*=*o*o*o=&o=o*%%==%*%&o*=*o=o*o=oXO$:>>:5-==*=*-=*=-*%&%=o*=*o*o*o=&=*=*=**%=*%&*o",
"o*=%*&*%&*X%=o=o*o*%oX+$:>:$3==**=%==*==*=%=%*o=o%*o=*%***o*=%==*%&*X%=o=o*o*%oXO$:>>:4==**=%3=*=-*=%&%*o=o%*o=*&=&*=*=%*o=*%*o&",
"o**%*&*%**%%*&*o*&*%oX+$:>:$3==%=*%=*=*=%*%*%=o*=**o&*%=**o**%*=*%**%%*&*o*&*%oXO$:>>:3==%=**-*=*=%*%&%=o*=**o&*&=*=*%=**%=o=&*o",
"X*=%*&=%&*%%*%*=X=o*oX+$:>:$3=*%=%*&%=%=***=%=**o**X=o*%o*X*=%*&=%&*%%*%*=X=o*oXO$:>>:3=*%=%*&%=%=***&%=**o**X=o**&**==*=o**%*o&",
"o**%*&=*=*%%*%=o*=*&oX+$:>:$3-=*=*%=**==*=o*=%=o*=**=%==*=o**%*&=*=*%%*%=o*=*&oXO$;>>:3-=*=*%=**==*=o&=%=o*=**=%=&*%=%=%=o=o%=o&",
"&*=%*&=%&**%*%*=**%&oX+$:>:$3==%*=%=%=%=%=&=%%=o*%=%*%=%%=&*=%*&=%&**%*%*=**%&oXO+;>>:3-==*=%=%=%=%=&&%%=o*%=%*%*&=*=*=**&=*%&*o",
"&*=%*&=%%**%*o%&X& XoX+$:>:$3&=%=%*&*=*=***==%**o%=%=%=*&=&*=%*&=%%**%*o%&X& XoXO+;>>:=3====*&*=*=***==%**o%=%=%=&=%==&&==&%==*%",
"Xo& XXXX  XXX o X o  X+$:>:$=&%%%%%%%%%%%%%%%%%%%%%%%%%%o&Xo& XXXX  XXX o X o  XO+;>>:=&%%%%%%%%%%%%%%%%%%%%%%%%%%%%%%%%%%%%%%%%",
"oooXXXoXoXXXo oX%ooX ++$:>:$+%XXXXXXXXXXXXXXXXXXXXXXXXXXoXoooXXXoXoXXXo oX%ooX OO+;><:+%XXXXXXXXXXXXXXXXXXXXXXXXXXXXXXXXXXXXXXXX",
"+++++++++++++++++++++++$:>>:$$OOOOOOOOOOOOOOOOOOOOOOOOOOOOOOOOOOOOOOOOOOOOOOOOOO++;><:$++OOOOOOOOOOOOOOOOOOOOOOOOOOOOOOOOOOOOOOO",
"$$$$$$$$$$$$$$$$$$$$$$$$:>>>:$$++++++#######$$$$$$###++++++++###############+++++;><1>:$$#++++##$$$$;;$$+++++OOOO+++++++++++++++",
">>::>:$$::$$$$::::$$$$$:><<>::$$$$$$::::::::::>>>>::::$$$$$$:>>>><<21<>:;$$$$$$$;><11<>::;$$$::::>,,<<>>::::$$$$::::::::>:$$::$$",
":::::$$$$$$$$$$:::$$$$:><11<>:$$$$$$::::::::::>>>>:::::$$$::>>:::><1<>:$$$$$$$$$:>1221<>:$$$$$::>><<22<>>::::$$$:>:::>::>:$:>>:$",
"::$3=&*=&=&=&=&&=&*%=%=%=%=%**%*%=%=%=%**%*==&*-&=&*%=%=%=%=%*=$$:,1>:$3=&*=&=&=&=&&=&*%=%=%=%=%**=**=*&=&=%=%&=%**=**&=&****$::",
"::553--3=33=33==-=3==3==3=-=3==33==3=-=3==3--=3-=-=3==3==3=-=3=&$;><:$553-46633=33==-=3==3==3=-=3=3=3=3=3--=3======3*3=-====%X::",
":$5==**=%==*==*%=%=o=&=o=&o%*&**&=o=&o%*&**&=%==%=%=o=&=o=&o**%o+$:>:$5****=%==*==*%=%=o=&=o=&o%*&=**====*=%**%=***=%=%=====%X$:",
">$53=%=*%=*=*=%%*%*o*o=*=o=o=&o=o=*=o=o=&o=X=%*=%*%*%*%=*=o=o=oX+$:>:$5*%%=*%=*=*=%%*%*o*o=*=o=o=&*&=*=*=%*o=*%=o&=*%=*=*===%X+$",
":$33*%=%*&%=%=*%%*=*o=*o=%o%%&**=*o=%o%%&**%**&%*%*=%%=*o=%o*&oX+@;>:$3==%=%*&&=%=*%%*=*o=*o=%o%%&=&=*=%=**%=o=**o*=X=o****=%X+$",
":$33=*=*%=**==*=*%=o=&=**o*o=*o=&=**o*o=*o=o*%&=%*%&%%&=**o*o=oXO@;::$363*=*%=&*&=*=*%=o=&=**o*o=**=*=*==*=o**%=o&=o==*===*=%XO$",
":$3==%*=%=%=%=%%=%*o=o=o=o=o*&o*o=o=o=o*&o*o=%*%%=%*%&%=o=o=o*oXO@$:;$33=%*=%=&=&=&%=%*o=o=o=o=o*&=&*=*%=%=o=o%=o&*=**%=***=%XO$",
":$3==**=%==*==*%*%=o*=*o*o*o=&o==*o*o*o=&o=o*%%=%*%&o*=*o=o*o=oXO@$;;$3==**=%=&*&=&%*%=o*=*o*o*o=&=&=*=*=**%=*%&*o%=X=&=*=*=%XO$",
"$$3==**=%==*==*=%=%*o=o%*o=*%***=o%*o=*%***o*=%=*%&*X%=o=o*o*%oXO@$;;$3==**=%=&*&=&=%=%*o=o%*o=*%*&=&*=*=%*o=*%*o&=*%=*=*=*=%XO$",
"$$3==%=*%=*=*=%*%*%=o*=**o&*%=***=**o&*%=**o**%%*%**%%*&*o*&*%oXO+$;;$3==%=*%=&=&=&*%*%=o*=**o&*%=&=&=*%=**%=o=&*o*=X=o*%***%XO$",
">$3=*%=%*&%=%=***=%=**o**X=o*%o**o**X=o*%o*X*=%==%&*%%*%*=X=o*oXO+$;;$3=*%=%*&%=&=&**=%=**o**X=o*%**&**==*=o**%*o&=o==*===**%XO$",
":$33=*=*%=**==*=o*=%=o*=**=%==*=o*=**=%==*=o**%%=*=*%%*%=o*=*&oXO+$;;$33=*=*%=&*&=&=o*=%=o*=**=%===&*%=%=%=o=o%=o&*=**%=%*&=%XO$",
"$$3==%*=%=%=%=%=&=%%=o*%=%*%=%%=o*%=%*%=%%=&*=%==%&**%*%*=**%&oXO+$;;$33=%*=%=%=&=%=&=%%=o*%=%*%=%*&=*=*=**&=*%**o%=X=&=*=&=%XO$",
"$$3==%=%*&*=*=***==%**o%=%=%=*&=*o%=%=%=*&=&*=%&=%%**%*o%&X& XoXO+$;;$33=%=%*&*=*=***==%**o%=%=%=*=&=%***&***%***%**&&*=%-*=%XO$",
":$==%%%%%%%%%%%%%%%%%%%%%%%%%%o&%%%%%%%%%o&Xo& XXX  XXX o X o  XO+$;;$=&%%%%%%%%%%%%%%%%%%%%%%%%%%%%%%%%%%%%%%%%%%%%%%%%%%%%%XO$",
":$+%XXXXXXXXXXXXXXXXXXXXXXXXXXoXXXXXXXXXXXXXXXXXoXoXXXo oX%ooX O++$::$$%XXXXXXXXXXXXXXXXXXXXXXXXXXXXXXXXXXXXXXXXXXXXXXXXXXXXXOO$",
"$$$$++++++++++++++++++++$$$$$$++OOOOO#####++++OOOOOOOOOOOOOOOOO++$;>>:$++OOOOOOOOOOOOOOOOOOOOOOOOOOOOOOOOOOOOOOOOOOOOOOOOOOOOO+$",
"$$$$$$$++$$$$$$$$$$$$$$$$$$$$$$$$$$:<<121<>$$$$$$$$$$$$$$$$$$$$$$;><<>:$++++++++++++++++++++##$$##++OO+++++++++OOOOO++$$$$$$$$$:",
"::$$$$$$$;;::::;;;;;;::>,,,,>:::::$;>><1<>:;;;$$$$$$;;;::::;;;$$;:<11<>::>:::::::::::::::::::::;;$$$#$;;:;;;$##+++++##$$;;::>>>>",
"::$$$::$::::>>::::::::>><<<<>>::>>$$>$>1>:::;;$$$$$$;;::>>:::::::>1221>>>>:::::::::::::::::>>>>:::;$$:::::::$$@@++++@@$$::::>>>>",
"=&=&&=&*%=%**%*==&*-&=&*%=%=%=%=%*=::$><:$$3=&*=&=&=&=&&=&*%=*%=%=%=%**%*==&*-&=&*%=%=%=%=%*==>::::$$3=&*=&=&=&=&&=&*%=%=%=%=%**",
"=33==-=3===3==3--=3-=-=3==3==3=-=3=&:$:>:$553--3=33=33==-=3==33==3=-=3==3--=3-=-=3==3==3=-=3=&$;:::$553--3=33=33==-=3==3==3=-=3=",
"*==*%=%=o=%*&**&=%==%=%=o=&=o=&o**%oO$:>:$5==**=%==*==*%=%=o=*&=o=&o%*&**&=%==%=%=o=&=o=&o**%o$;:::$5==**=%==*==*%=%=o=&=o=&o%*&",
"=*=%%*%*o*o=&o=X=%*=%*%*%*%=*=o=o=oXO+$>:$53=%=*%=*=*=%%*%*o*=o=*=o=o=&o=X=%*=%*%*%*%=*=o=o=oXO$:::$53=%=*%=*=*=%%*%*o*o=*=o=o=&",
"=%=*%%*=*o%%&**%**&%*%*=%%=*o=%o*&oXO+$>:$33*%=%*&%=%=*%%*=*o*=*o=%o%%&**%**&%*%*=%%=*o=%o*&oXO+;::$33*%=%*&%=%=*%%*=*o=*o=%o%%&",
"*==*=*%=o=o=&o=X=%*=%*%*%*%=*=o=o=oXO+$::$33=*=*%=**==*=*%=o==&=**o=o=&o=X=%*=%*%*%*%=*=o=o=oXO+;::$33=*=*%=**==*=*%=o=&=**o*o=*",
"=%=%%=%*o=%%&**%**&%*%*=%%=*o=%o*&oXO+::;$3==%*=%=%=%=%%=%*o=*o=o=%o%%&**%**&%*%*=%%=*o=%o*&oXO+;::$3==%*=%=%=%=%%=%*o=o=o=o=o*&",
"*==*%*%=o*o=*o=o*%&=%*%&%%&=**o*o=oXO+::;$3==**=%==*==*%*%=o*==*o*o*o=*o=o*%&=%*%&%%&=**o*o=oXO+$::$3==**=%==*==*%*%=o*=*o*o*o=&",
"=%=%%=%*o=o*&o*o=%*%%=%*%&%=o=o=o*oXO+::;$3==%*=%=%=%=%%=%*o=*=o%*o=o*&o*o=%*%%=%*%&%=o=o=o*oXO+$;:$3==%*=%=%=%=%%=%*o=o=o=o=*%*",
"*==*%*%=o*o=&o=o*%%=%*%&o*=*o=o*o=oXO+::;$3==**=%==*==*%*%=o***=**o*o=&o=o*%%=%*%&o*=*o=o*o=oXO+$;:$3==**=%==*==*%*%=o*=*o*o**%=",
"*==*=%=%*o*%***o*=%=*%&*X%=o=o*o*%oXO+::;$3==**=%==*==*=%=%*o**o**o=*%***o*=%=*%&*X%=o=o*o*%oXO+$;:$3==**=%==*==*=%=%*o=o%*o=o*%",
"=*=%*%*%=o*%=**o**%%*%**%%*&*o*&*%oXO+::;$3==%=*%=*=*=%*%*%=o=o*=*o&*%=**o**%%*%**%%*&*o*&*%oXO+$;:$3==%=*%=*=*=%*%*%=o*=**o&==%",
"=%=***=%=*o*%o*X*=%==%&*%%*%*=X=o*oXO+:::$3=*%=%*&%=%=***=%=*=o*%=X=o*%o*X*=%==%&*%%*%*=X=o*oXO+$;:$3=*%=%*&%=%=***=%=**o**X==%=",
"*==*=o*=%=%==*=o**%%=*=*%%*%=o*=*&oXO+:::$33=*=*%=**==*=o*=%=o*=***=%==*=o**%%=*=*%%*%=o*=*&oXO+$;:$33=*=*%=**==*=o*=%=o*=**=*=%",
"=%=%=&=%%=%=%%=&*=%==%&**%*%*=**%&oXO+::>$33=%*=%=%=%=%=&=%%=o*%=%%*%=%%=&*=%==%&**%*%*=**%&oXO+$;:$33=%*=%=%=%=%=&=%%=o*%=%*=%%",
"=*=***==%*%=*&=&*=%&=%%**%*o%&X& XoXO+::>$33=%=%*&*=*=***==%**o%=%%=%=*&=&*=%&=%%**%*o%&X& XoXO+$;:$33=%=%*&*=*=***==%**o%=%===%",
"%%%%%%%%%%%%%o&Xo& XXX  XXX o X o  XO+:::$=&%%%%%%%%%%%%%%%%%%%%%%%%%%%o&Xo& XXX  XXX o X o  XO+$;:$&&%%%%%%%%%%%%%%%%%%%%%%%&&=",
"XXXXXXXXXXXXXXXXXXXXoXoXXXo oX%ooX OO+:::$+%XXXXXXXXXXXXXXXXXXXXXXXXXXXXXXXXXXoXoXXXo oX%ooX XO+$;:$$%XXXXXXXXXXXXXXXXXXXXXXXXXX",
"OOOOOOOOOOOOOOOOOOOOOOOOOOOOOOOOOOOOO+::>>$++OOOOOOOOOOOOOOOOOOOOOOOOOOOOOOOOOOOOOOOOOOOOOOOOOO+$;::$$+++OOOOOOOOOOOOOOOOOOOOOO+",
"++++++++++++++++++++++++++++++++++++++::>>::$++++#++++++++++++++++++++++++++++++++++++++########$;::::$$++++++++++OOOOOOOOOO++++",
"$$:;$$:;$$$$$$;;;;;;;;;;:::;$$$;;;;;;;:>>>>>>::>::::::>>::::::>>:::$$$$:::::;$$$$$$$$$$$;;::;;$$;;>>:::$$$:>::::::::;$$$$;::::::",
"$$::;:>:;;;;;;::::::::::>>>:;;::::::::>>>>>>>>>>>>>>>>>>>>>>>:>>::::$$::::::;;$$$$;;$$$$;;::;;$$;;>>::::$$>>::::::::;;$$;;::::::",
">>>>>>>>>>>>>>>>>>>>>>>>>>>>>>>>>>>>>>>>>>>>>>>>>>>>>>>>>>>>>>>>>>>>>>>>>>>>>>>>>>>>>>>>>>>>>>>>>>>>>>>>>>>>>>>>>>>>>>>>>>>>>>>>",
">>>>>>>>>>>>>>>>>>>>>>>>>>>>>>>>>>>>>>>>>>>>>>>>>>>>>>>>>>>>>>>>>>>>>>>>>>>>>>>>>>>>>>>>>>>>>>>>>>>>>>>>>>>>>>>>>>>>>>>>>>>>>>>>"
};
