/* XPM */
static char *_6162_8cc97ec0ac0ef1ecee14bc2c585efd997ca87c6d3ccacc12bade1ad7ded1aab5[] = {
/* columns rows colors chars-per-pixel */
"128 128 21 1 ",
"  c #232323",
". c #2F2F2F",
"X c gray20",
"o c #373737",
"O c gray23",
"+ c #434343",
"@ c #4B4B4B",
"# c gray34",
"$ c #5B5B5B",
"% c #676767",
"& c gray45",
"* c gray50",
"= c gray56",
"- c #9B9B9B",
"; c gray67",
": c #B7B7B7",
"> c #BBBBBB",
", c #C3C3C3",
"< c LightGray",
"1 c #DFDFDF",
"2 c #EFEFEF",
/* pixels */
"................................................................................................................................",
"................................................................................................................................",
"####################@@ -,11111111111111111111111111,-   OOOO.&-,<<<<<<<<<<<<,,,,;*#...  O+@@@@@@@@@@@@@@@@@@####################",
"####################@@-,111,,,,;,;,,;::;:;,:,,:==*;1,-  OOO@-,:;;;--------;------*&#..  O@@@@@@@@@@@@@@@@@@@####################",
"####################@@,1<,:;;<;;-;;;;;;;;---::---=*;==  OO.-<:--==-=====-=-==--=-*%#O.  O+$&************&&%%#@@@@@@@@@@@@@@@@@@@",
"@@@@@@@@@@##########@@,1<:;;;;;;<=;==--=;---*====;*===  OO&,<:-===--==-==-=-=-==*&%#O.  O+%*============**&&%%#@@@@@@@@@@@@@@@@@",
"**************##@@##@@,1<:;,-;=<;,=*-==*-;*=;=;;--=&&=  OO=,<;---=--==-==-==--=;*&%#O.  O@&=11111111111,,,::;;;;-;-;---=********",
":::::::::;;--=*#O@##@@,1<:;;:=--,;;=====**=-=;==;-=&%&  OO=,<;;-;====--=-=--====*&%#O.  O@&-1111111111111<<,,,,,::;;::::::::::::",
",,,,,,,,::;---*%O@##@@,1<;;;;;-,-=-=;-*======*=;=;-&#%  OO=;<;====-=-----=======*%##O.  O@&-1111<<<<<<<<1111111111<<<<<<<<<<<<<<",
",,,,,,,,,,;;==&%OO@#@@,1<;;-;=-;-;-;*;==;-==;=*=*;*&##  XO=;:;==-=-=-=-==-======*%##O.  O@&-11<<,,,,,,,,,,,,,,,,,,,,,,,,,,,,,,,,",
"===;-=----;;=*&#OO@#@@,1,,;;=;;--=*-;==*==;;-==-==*&##  XO&=-;==----===--=-=;-=-*%##O.  O@&-1,::;-;-;;--;-;-;-=-=;=-=-;-=-=-----",
"=*=====-=-;;=*&#OO+#@@,1,;:-;;-=;:=;=*=;=**-*;--===&##  XO%&=;==------=-=----==-*%##O.  O@&-1,:--;---=-=-;=;-;--;==--=-==--;=;--",
";*;-*======;=*&#OO+@@@,1<-;-=;;----=;=*=-*==*=*===*&##  XO#&*-====---==-=--==--=*%@@O.  O@&-1,:----;--=--=-=--=-=--=;---;;-=-;;;",
"*==-*-=-*--;*&%# OO@@@,1<;;;;=-=;;==-*==*;=;=;=---=&##  XO@#%*====--=----===--==*@@OO.  O@&-1,:--;=-=;--=---=--;=;;=---=-===;-;;",
"-*;*==-=*=--&%#@ .XO@@,1<;=--;;--;*=*=*==*;;==*;==-&##  XO@##%*=--=-----====--=&#@OOO...O@&-1,::;-;=-=--=-;----=;==-=;--=-=;==--",
"=-*====*=;==&%#+ .XO@@,1<---;,;-;-=-*===;===;==-*=;&##  XO@@##%**==--=======-*&%@OOO. ..O@&-1,::-==-=-==;;--;=;=-;-==--=-=-=-==-",
"*=*=*=*==*==%#@+ ...@@,1<;;-------;==;*;===;-==;==-&##   X@@O@@@#%%%%%%%%%%%%#OOOOOO. ..O@&=1,:-;;-=----;-;;-=--==-=-*=-=*===-==",
"--===;=;==-*%#@+ ...@@:<<;=---;-=;====;=-===;=;-=-=&##   XX@@O#OOOOOOOOOOOOOOOOOOO..  .O+@%=1,:---;=;-=;---=-==-;-==-=-=*==-==*=",
"===*=--==-=&#@@O ...@@;<<-;---=-;=*;--=*===--=--=;=&##.  XXO@OOO@@@@@@@@@@@OOOO...    .O+@#&,,:--=-==;--=;-;======--*--*-*===*-*",
"=*;=;=--**&%#@O. ...@@;<<;*;------;=-==-=-=,--=-===&##.   XO@@..................      .O@@@&,,:-=-==--;=------===-=*=*=-***=*-*=",
"&=&*&&&&##@@+O.  ...@@=<1;;-=-;----==--=-=*-=-====;&##.   XO@@O                      .OO@#@&:,:--=-;=-=-=======*=*=**=**=&=&*&=%",
"&%%%%%%%#@++O.   ...@@=:1:;---=-=-=-=-=-=;====;--,;&##.   XOOOOO....          ........OO@#@&;:;-=--===-=--=**&&*&*&%*&*&*&%&%&%&",
"#####@@@@+X.     ...+@&:1:;;--=-====;;=;=;*;-;;;--=&##O   XOOOOOOO                    OO@#@%-;-=********&&%%##########%#%#@#@@#@",
"@+++OOOOOX.     ....+@&-1,;;----;=;;--;=;*-,-=--,=-&##O   XOOOOO@%%%&&**==-;;,111,;*#O O@#@$&-=*&&&&&&%%%%%##@@@@##@@#@#@@@@@@@@",
"....        ....XXOO@#@=,,;==;=;=--;-=:;;=-;--;--==&##O   XXXOO%=<222111,,,,,,::=-*&#O .@#@@#%&&%%%%#####@@@OOOOOOOOOO..........",
"         ......XXXOO@#@*,<:-==-=;===;--==-;=;;=-=:=&##O   XXXX%&<22111<<,,:::::=-*&&#O .+@@@@##$$####@@@OOOOOOO.................",
"................XXOO@#@%:<,-==;--=-==-=:==-;==-==;-&##O   ..XX*;2211<<,::;:;--;-==&%@O .OOOO+++++++++OOOOOoooo..                ",
"................XXOO@#@@;<,-=--,===:-==;--=-;=;=;-=&##O   ..XX-<221,,,::;,:;---=-*&%@O .OOOOOOOOOOOOOooooo........              ",
"OOOOOOOOOOOOOOOOOOOO@#@@-,,:;;==;=--;=;-=-;=;-=;=;-&##O   ..XX-<21,,;;:;;-:-:;-=***&@. .OO....................OOOOOOOOOOOOOOOOOO",
"OOOOOOOOOOOOOOOOOOOO@#@@=,,:;-;==-=;=;=;-=-==--=-=*&##@   .XXX-<2,,,;,;:-;;==-;-=**%@. .OOoOOOOOOOOOOOOOOOOOOOOOOOOOOOOOOOOOOOOO",
"#@++OOOOOOOOOOOOOOOO@#@@&:,:==;-=;;=-=-=***====-*=-&##@   .XXX-,2,;;=;;-,--;-=-=-**&@. .OO@@@@@@@@@@++++++++++++@@@@@@@@@@@@@@@@",
"#########@@@@@OOOOOO+@@@%;,:=;---=;;=-*=-**;=-=-=-=&##@   .XXX-:2,-;;-:=;-;-=;=-**&%@. .OO@@#######@@@@@@@@@@@@@@@@@@@@@@@@@@@@@",
"-----=====*&%%%%%#OXXO@#@=:,--;----=-==*==*=*-=*=*=&##@.   XXX=;2,;;=-=;--==---==&*&@. .OO#&;;;-&###@@###*----------------------",
":::::::::;;----=*%...X@#@*;,---;=-=-==*=***-=*--*=-&##@.   .XX*;2,,----=-;--;=-=*&&&@. .OO&<<<,;*###@@@#*-::::::::::::::::::::::",
"11111111111<:;-=*%OX.XO#@%=,----,-=*=**=*=*=*=**=*=&@#@.   .XX*;<,;;----==-=-=*=&&*&@. .O#;<::::-#@@@@@*,<1111111111111111111111",
",,,,,,,,>>,>:;=*&%OX.XO##@=,=--=;-*=*=**=*=*=**=**=%@#@.   .XX&=---;-;-==-=*=*=***&&@. .O%;<:;::;#@@@@@*<1<,,,,,,,,,,,,,,,,,,,,,",
":;:::;;;;-;-=-*&&%OX XO##@&:=---==&********&*&****%#@#@.   .XXO###=,;===**&********%@. .O%,1:;;;=#@@@@@-1<,:::;;;;;::;;::::;::::",
":;;;;;;;;-;=-=*&&%OX XO##@%;-*====***&****&*&%%%%#@@##@.   .XXXOO#@====*&&*&**&&*&%#@O .O&,1;;;;=#O@@@@-1<:;;;;;;:;:;;;;;;:;;;;;",
"=--;===-=;;=;-*&&%OX XO@##@=-*&&&&&%%%&%%%##@@@@@@@##@O.   .XX   O#@@@@###########@@OO .O*11:--==#O@@@@-1,;;-;-;;---;;;---=--;--",
";=-=;;-;;=-;=-*&%#OX .O@##@#*&%##@@@@@@@@@@@########@O..   .XXX.  O#######%%####@@OOO. OO=11:-=-=#OO@@@-1,:-;---;;--=;=;--;=-=--",
"=-;;=---;-=:;-*&%#OX .O@##@OOOOOOOOOOO@@@@@@@@@@@OOO..     .XX.... ................... OO=1<---;=#.O@@@-<:;;-:---==-;=;=;;=-;-=;",
";=-=;;-=-;;-==*&%#OX .O@##@@OOOOOOOOOOOOOOOOOO..           .... ...                   .OO=1<;--;=#.O@@@-<:;-;=-;----=;--=-;=-=;-",
"-;;=---;-=-=:-*&%#OX .O@##@@........                       ...........................+O@-1,--;-=#.O@@@=,;-=;-;-;-=;-==;==-;;--=",
";=-;;=--;;==;-*%%#OX .O@##@@........                    ...X.........................OO@@;1:---;=#.O@@@=,;=-=;=-==;-===---;=-;--",
"==;-;;-=;;-;--*%##OX .XO####@@OO               .XOOOOOOOOOOO++++@@@@@@@@@%%%%%%#@+..OOO@#,1:----*#.O@@@=,;-;==;;-=--====;;==;=:;",
"-;-;=--;;-;=;-*%#@OX .XO@###@@OO               X+@@@@@@@@@@@@@@@@@-,11<,;;----*&#@XXOO@#=1,;--=-*#.O@@@=,;----==;===-=;=;--;-;=-",
";-;--=:==-=-;-*%#@OX .OO+O=;:11111<,::-*&@++OOO@@#%&=---;;;;::,,,<1<,,,,,,,:::-*%@X OO@%>1,;----&#.O@@@*;;;-=;-==;=;----;-;-;-=-",
"-;=;-;;;=---=-*%#+OX .OO%;111111111<<:;;=&@+OO+@%:,11122222<<<<111<,:----;;;;:--%@  OO@&,1;;--;-&#.O@@@*;---=;=-===-=;===;-;=--;",
"=-;;=;--;;=-=-*%#+OX .OO;1,,,;:--:--;;---*#@++@@%11222<,;;;;;;;;;;;----;;----,&&#@  OO#-1,-;-;-=&# .@@@%==--;;-;==--==;=;==-;;==",
"==-===;==-=-==&#@+OX .OO1,,,;,;::=:-;;---&#@@+@@&22<::;;;-,---;;==---,--=,-,--&&#O  OO#-1,----;=&# .@@@%%=-=-;;-==---=--====--==",
"**=======;===*%#+OOX .OO1;:,:,:;;;;;----;&#+#+@@*11:,;;;-;;-;;--;=;*-,-=--,=--&%@O  OO%-2;--;--;&# .@@@#%%******************===*",
"%%%%%%%%%***&%#@+OOX .OO1;,:,;:;---;=-;:,%@O@@@@*1<:,;-=---:==;;=;=;*;-;;;--=-&%@O  OO%=2--;--;;&# .@@@O#+@%%%%%%%%%%%%%%%%%%%%%",
"@####$$%%%%%#@+OOOOX .OO1;:-:;------=-;;;&OO@@@@*1,:;;;-==;-=-=-=-=;=====--,;=&#@O  OO%=2----;--&# .##@O.OOO@@@@@@@@@@@@@@@####@",
"@@@@#@#####@++OOOXX. .OO1;:;;;;-=;==-;;:;&Oo+@@@*1,:;--==;==-==----=*-=-====;-&#@O  OO%=2-----;-&# .###@O...XOOOOOOOOOOO++@@@@@@",
"@@@@@@OOOOOOXXXX.   .XOO1;-;;-======;;;:,*Oo+@@@*1,:-====;=-;=-==-=-=,--=,====&#OO  OO%=2=-=;-=-&# .####@O.            ...ooO+@@",
"+++OOOXXXXXX...  ...XOOO1;;;;----;-=-=-;;*Oo+@@@*1,:=--===;;*;--=*===--=--=;==&#OO  OO%=2;;==---&# .#####@O.               .oOOO",
"            .....XO++@@@1;-;-;-==--=;-;-:%OoO+@@*<<:--===;======;=-===;=;-=-==&#OO  OO%=2----=;-&# .######@O...........         ",
"            ..OOO+@#@@@@1;=--==;-==--=;--%OoOO+@*<<:--=--==;;===*;*=-;-==;==;=&#OO  OO%=2;---==;&# .########@OOOOOOO......      ",
"@+@@@@###%%%%%%%%%%%#+  1;*;;-=-;-==-:---%+Ooo+@*<<:;;-==-========;===;==-*=;;&#.O  OO%=2=-=--;;&# .#############@@@@OOOOOOOOOOO",
"@@%%%%&&==--========@@  1;*==;===;;:=;,;;%+o..+@*,<:;-;=--;=====*==*;;==*;==;;&#.O  OO%=2-;-=;--&# .###@@@@@###########@@OOOOOOO",
"%%==::111111<<<<<<;;#O  1;=-==;=;=-==;-:-%+o..+@&;<:-=-=;==;==*===*;=;=;=---==&#.X  OO%=1;-=--;-&# .##@#%--;;-=&%%##@@@@@@@@@@##",
"%&==:;;;;;;;;;;;;;-;#O  1;*==;===;-=-=,:-%@O..+@&-<,---==-;===;=*=,*==*=*===*;&#.X  OO%=1=-=----&# .#@%=<1<<:;;-=**&%%##@@@@@@##",
"%*;-==;==---;:;,----#O  2;=-;-=-;----;,:-&#+o.+@&-,,;-;-=-;==;=*=;==*-*;--====&#.X .OO%=1;-----=&# .#@=<1<,,,::,<111111<;=&#@@@#",
"%*;-===*-==*----;---#O  2;*;=;=-=--=:=-;-&#+O.O@%=:<;-=*==-=*-;=====;;-==-==*=&#.X .OO%=1-=;--==&# .@@,1<,:,:,,:::::,:,::;*#@O@#",
"%*,;=;;=====-;----;=#O  2;=*;=**-;--=;;--&#+O.XO@&:<:--,====-;*;==;-==;=*=*;**&#.X .OO%=1;=-;-==&# .@@<1,:,:,:;;;-;-;-=-==*#@O@#",
"%*,;==-=;-*-==--;=-=#O  2;*-;=-==-=;;=-,-&$@O.XO@&;<;--=;;=*==;**======*=;=;-=&#.X .O.%=1----;==&# .@@1<:,::;:;-;;--;=-*=**#@O@#",
"%*,;=;-;*;==;--==-;-#O  2;=====-;=--;:-;-%$@O. X@%-<,;--;=;=;=====**=-=;==;-==&@.. .@.%=<-;;--=*&# .@@1,,::,:;-;-;-;==***&%#@O@@",
"%*,;==*-;==*=-=:==--#O  2;=--==;--;-=;;--%$@o. X@%-,,;;--;*-=**==*-;*=;=;;---&&@.. .@.%=<=-;--=*&@ O@@1,:;:;;-;-;-;=--**&%&#@OO@",
"%*,:=:=;=*=;===;--=-#O  1;*=;=;-;=--:;-;=%$@o. X@%=:<;--;---;==--=;-=;*====;-=&@ . .@.%=,=--===&#O O@@<:;::;---;--=-=***&&%#@OO@",
"%*,>-=-=;=*=-=;-=---#O  1;=;---=--;=;--:=%$@o..X@%&;<;:--*-=;;=*=;*--==-*=;;=*%+ . .@.%=:=====*%@  O@@;:;-;-;;----*=**&**%&#@OO@",
"%*,;;===-*==*;=;-===#O  1;-=;-;=;-----;;=%#@o. X+#%=<:;;--=-=*;=;--*-=;;--=--*$X.  .@.%=;;==**%#. O@@@-;-;-;;----==****&%&%#@OO@",
"%*,:=;*=*=*===-=*=*=#O  1;==-;=;--;=;=-==%#@o. X+@%*,:-:;;*=**=;*=-=-====-=-*$@ .  .@.#*--**&%#. .O@@@=-;--;-;--==***=&*&%&#@OO@",
"%*,>-;=-*===;-*=-***#O  ,;;=-====;=-=-=-=%#@o. X+@#&;:;-;-=*-==*;==;--===&$@++XX.  O@.O%&&%%##. .O@@@@%==---;--=-*=**&**%&%#@OOO",
"%*,>;=;==;*;===*==*&#O  ,;-=-=-----;---;-%#@o. XO@@%-::,--==-;==;;==-&$@++++++XO   O@.O@##@@O  OO@@@@@O%&*==-==*=&**&*&%&%##@OOO",
"%*,;;;====;=-=*=*=&*#O  :;;-;;;-;;=-=-=--&#@o. XO+@%=;::;--===**&$@++++@@@$##@OX   O@OO..    .OO@@@@@@O@%%%&***&&*%&%%%%#%#@OOOO",
"%*,:=;*;--=*=*==--*&#O  ::;:-;;=;=;-:==;-&##o. XO+@#&=;:;-===*$+++@@++XXXXXXXXX    O@@OOOOOOO@@@@@@@@@O.O@@@##############@O..OO",
"%*,>--;=-==-==:===**#O  -:;--;-;:;=;-=;--&##o. .O+@@O#*--*&$$+++++XXXXX           .O@@@@@@@@#########@OO.   ..............  .OOO",
"%*,:;;-==--=-=;-=*-*#O  -:;:;-;;--;==--=;&##o. .XO++ .O####@@@+OXX                XO@@##@@@@##########@@O...................OOOO",
"%*,>--=-=-=-=;-=-=**#O  *;:;---;;-=;==-:;%##o. ..O+@X    .OOOX                    XO+@@@##@@@@@@@@@@@@@@@@@OOOOOOOOOOOOOOOOOOOOO",
"%*,;;;==;;=;=;;-=-&&#O  *-:--;--==;-;:=;-%##o. ..X+@+OX           .XXXXXXXXXXXXXXXO+@@####@@@@@@@@@@@@@@@@@@OOOOOOOOOOOOOOOOOOO@",
"%*,>==;;--;=;*=*-=-*#O X#-::--;----=-==;;%##o. ..O+@@++OX........O+++++++++++++@@@@@@@#####################################OOO@#",
"%*,;;--;--:;;==--=*&#O X#-2;;;;:;==--=-=-%##o. ..O++@@@@OOOOOOOOOO@@@@@@@@@@@@@@@###########******************************%@OO@#",
"%*,;=-;=;--=--;==**&#O X@*2:;;;--;-;=-;-;&##O. ..XOO@@#################################*-;::::,<<<<<<<<<<<<<<<<<<<<<<,,:;;*#OO@#",
"%*,;=;-==-=:=--;=-&&#O X@*2:--;;--==-;=;-&##O.  ..XOO##******************************=,<<1111111111111111111111111111<,:;-*%OO@#",
"%*,>=-=:-==;--===*&%@O.X@@2:---====;;=;-=%##O.  ..XOO#*,221111111111111111111111111111111111111111111111111111111111<<::-=%%..@@",
"%*>;;=--;=;-=-;=-*%#@ .X@@2:-;---=--==;-;%##O.   .XOO#:21111111111<<<<<<<<<<<<<<<<<<<<<11<,,,,,,,,,,,,,,,,,,,,,,,,::,,,;=*%%..@@",
"%*,>--=;=;=;-=-*=*##@ .X@@2:;-;-==-=;-=;-%##O.    .OO#,111<<<<<<<<<<<<<<<<<<<<<<<<<,,,,,:::::;::::::,::,:,;:,,::::;:::;-**%#O.O@",
"%*>;;;;=-=-=*-**-*##O .O@@2:=-==;-=;==--=%##O.    .OO#,11<,,,,,,,,,,,,,,,,,,,,,,,,,::::;:;;:;:-;:;::,:;;;;-;-;;;:;:;;;-=**%#O.O@",
"%*:;==;;=-*=-**-**#@  OO@@1:;;-=---=;==-:%##O.    .OO#,<1,::;::;:;,:;,::;,,;:;:,;;-;;;;;:;:;;-;=-;-;-;;;=-=;=---;-;:-;==*&%#O.OO",
"%&-;---=-==*==***&#@  OO@@1:==;==;=;-;:=;%##O.    .OO#:<<,-:,;::;::;:,;;,;;,;:;;;;;,-;-:;,;;:=----;;-;-;-=;-=:;;=;-;-=-=*&%#O..O",
"@%----=-==*=*****&#O  O+@@<:-==;=-*-=-===&##O.    .OO#:,<,:;-;;-;;;,;,:;:;::;---;:::;-,;-;:;=-;-;-=:;;=-;--;--==-=:-;-==*&%#O..O",
"@%----=*=**=*=**&%@. .O+@@<:=;===*;=--=-=&##O.    .XO#;,<,:-;;-;;-;;,;;;;;;;-;;-,-,,-;--;--;-=-==;--==-;=;;=-=:===;=-*==*&%#@..O",
"@%----*=*=**=*=%%#. .XO+@@::;-==-=-;--===&##O.    .XO#;,<,,,--,-;,--;-----;;=-=:;;=;=;=:;;--=---==-=:==-;==-==;---=-*==**&%#@..O",
"@@--==&******%##@. ..XO+@@::=;==-;==-=;:=&##O.    ..O#-,,:,;;-;-,-;=;-=-==-;-;--==--:=;;=:;-;=-=:-==;--=-;=;=;-=---==*==*&%#@..O",
"@@&***%%%%%####@. ...XO+@@--;=*;*;=-=-=-*%##O.    ...#-:,:<;<--;;;=;--,-;-====-=:==-=-;---=-=-;--;=;-=-;=;-=;=;-=;=-*=*=*&%#@ .O",
"@@#%%%##@@@@++O .....XO+@@*-;=;;======**%%##O.     ...*-,:;;;=;=-=;=;,-;====--==;-----=-;-;-;=-=;=;=;-=-==--=-=**-===*=**&%#@ .O",
"@@++OOOXXXXXXXX.....XO++@@#*%%%%%%%%%%%%###@O.     ...@*-:;--;;;-;=;=====;-;=;=;-=-;=-=;==-;-=-;=-=-=***====-*=-*=*;*=*=*&%#@ .O",
"@@+OXXX............XXO++@@@##############@@OO.     ...@&*-;;;-=----=;-=-==;-==;=;-=-=-==;-;==--;;=-*=-**;=-=-=-=-====*==*&%#@ .O",
"####@@+OOX..........XO++OOOOOOOOOOOOOOOOOOOOO.     ...O@&*--;--=---==-;--*==--=-=**:-==;--===---=-==*==*=*-=*=*==*=**==**&%#@ .O",
"##@@@@@@+OXXX.X.....OO++OO....................     ...OO@#%=----=-----;-*-====-*=-*==---;-;-=*;=-==*=***-=*--*=-*=*=*-***&%#O .O",
"@@@OOOOO@++++OXXXX..OO++O..                         ..@@@@#%&&&&&&&&&&&&&*==;=;=-==;*====;=-=-==*=**=*=*=*=**=*==*=**=*=*&%#O .O",
"@@OOO##&&&&&%##OOOOOOOOOO...                        ..##@@@@############%&*====-=====*==-=*==*=*=*=**=*=*=**=**===**=*=*&&##. OO",
"@OO%=--::::;=*&###@OOOOOO...........................OO##@@OOOOOOOOOOOO@@%#%&&&**=**&***&*******&********&*&***=*=*=*=**&%%#@. OO",
"@O%=,<1111<<<:;-*&####@OO...........................OO##@@@O...........O#@#%&&**==***&**&**&*&****&****&*&*&**&**&****&%%%#@  OO",
"OO*,<<,,,;;:,<<<,:-*&##@@OOO.....OOOOOOOOOOOOOOOOOOO@@##@@@@OOO.........O@@###%%&&&&&&&&&&&&&&&&&&&&&&&&&&&&&&&&&&&&%%%%%#@O..OO",
"OO=,<,:;;;;;:::,<1<,;-*&#@@O......OOOOOOOOOOOOOOOOOO@@##@@@@@@OOOOOOOOO..O@@############################################@@OO..OO",
"@O-<,:;;:;;;;;;;::<1<,,:-*&#########################%%%#####@@@@@@OOOOOO...O@@@@@@@@@@@@@@@@@@@@@@@@@@@@@@@@@@@@@@@@@OOOOO..OOO@",
"@O-<:;----------;;;,,<<<>;--------------------=*****&&&&%%%#@@@@@@@@@OOOO...........OOOOOOOOOOOOOOOOOOOOOOOOOOOOOOO.........OO@@",
"@O-<:;===-=:--==-;;;;,<11<<,,,,,,,,,,,,,,,,,,>>:::;-----------=*%OO@@#OOOOO..................XX...........................OOO@@@",
"@O-<:-=--==;-;;-=-=---;,,,,,,,,,,,,,,,,,,,,,,,,,,>::>>>>>>>>>::-*%..O@@@OOOOOOOOOO......................................OOOO@@@@",
"@O-,:-;=;=;-=;===-=:==-;;:;;-;=-;;:;:;;-;=-;-;-:::::,,111111<<,,-*O..O##@@OOOOOOOOOOOOOOOOOOOOOOOOOOOOOOOOOOOOOOOOOOOOOOOO@@@@@#",
"@O-::==;-----==--==;-==;:;:;;-;=-;-;-;;;=-;;;=------;:>,>>>>>>;;,*OO.O##@@@@@@OOOOOOOOOOOOOOOOOOOOOOOOOOOOOOOOOOOOOOOOOO@@@@@@##",
"@O-,:=;-=-;=-=;=;=;-=----;;=-=:;;=;=;=:;;--=---==-=-==-;==-==;**,%O. O##@@%:1111,;-*%#@+++@@@@@@@++@@@@@@@@@@@@@@@@@@@@@@#######",
"@O-::;=;-=-=-==;-;=;-=-==-;-;--==--:=;;;:;-;=-=--==;--=-;=;=;-**;%O. O##@@&1,::,11,:-*@@@@######@@@@@@@@@@@@@@@@@@@@@@@@@@######",
"@@-::-;---;===-;-=;==;==----;;=:==-=-;---=-=-;---=;-=-;=;-=;=;=*=#O. .@@@@*,;;;;,11111,-*%####@@@*;,1111111111111111111-@@@@@@##",
"@@=;:-----;:=:;==;-;=;=-;-;-=:;:::;-,;-;:;=-;-;-=-;;=-;--;--==-*=#O. .@@@@=;;;;:;:::,111,*%###@@*:1<<<,,,,,,,,,,,,,,:::;*@@@@@##",
"@@&==;-;;---,-----;--;-=-==;--,-,,-;--;--;-=-==;--==-;=;;=-=-==&*#O.  O@@@=;:;:;::;:;:;::-%%#@@*:1,::;;;::::;;-;-;;--;;;;-#@@@##",
"@@#&**=-=:;;=;=;--;;--=---==-=;;=;=;=:;;--=---==-=-==-;==-==--=&*#O.  O@@@=;::;:;:;:;;;;;-*%##*:1,;;;;;;-;-;;;;;;-;;;;-;-=*#@@##",
"@#O#&%%%&&&&&%&&&&&&&%%%&&%%%%&&%%%%%%%***&%**%#O##%%#%%##%######OO.  .@@@=;;;:;:;:;:;;--=*%@@*:<;;-;;-;;;;;;;-;-;;;;-;--=*#O@##",
"@@OOO@++++++++++++++++++++++++++++++OO+++++++++OOOOOOOOOOOOOOOOOOO.   .@@@==------------==*%@@;,;-;-=;;-;-;--;-;;-;-;--=-=*#.O##",
"@@OOO...................................                              .@@@#***************%#@@-;;-=-=--=--=--=-=-=-=--=-==*#.O##",
"@@+OX................................                                 .@@@O##%%%%%%&&&&%%%#@@@--==========================&#.O##",
"##@@OOOOOXXXXXXXXXXXXXXXXXXXXXXX.......................................@OOOOO@@####%%%%#@O..OO***************************&%#.O##",
"##@@OOOOOO......XOOOOOOOXX.............................................@OOOOOOO............OOO#############################O.@##",
"#######@@+++++++@@@@@@@@OOOOOOOOOOOOOOOOOOOOOOOOOOOOOOOOOOOOOOOOOOOOOOOOOOOOOOOOOOOOOOOOOOOOOO#@OO..........................O@##",
"########@@@@@@@@@@@@@@@@OOOOOOOOOOOOOOOOOOOOOOOOOOOOOOOOOOOOOOOOOOOOOOOOOOOOOOOOOOOOOOOOOOOOOO####OOOOOOOOOOOOOOOOOOOOOOOOO@@@##",
"OOOOOOOOOOOOOOOOOOOOOOOOOOOOOOOOOOOOOOOOOOOOOOOOOOOOOOOOOOOOOOOOOOOOOOOOOOOOOOOOOOOOOOOOOOOOOOOOOOOOOOOOOOOOOOOOOOOOOOOOOOOOOOOO",
"OOOOOOOOOOOOOOOOOOOOOOOOOOOOOOOOOOOOOOOOOOOOOOOOOOOOOOOOOOOOOOOOOOOOOOOOOOOOOOOOOOOOOOOOOOOOOOOOOOOOOOOOOOOOOOOOOOOOOOOOOOOOOOOO"
};
