/* XPM */
static char *_500_0453428f262fa5673236f922bf3763b36399ce6f88e698999edab74db451abc6[] = {
/* columns rows colors chars-per-pixel */
"128 128 24 1 ",
"  c #000001",
". c #00001F",
"X c #00003F",
"o c #000043",
"O c #00004F",
"+ c #00005B",
"@ c #00005F",
"# c #000067",
"$ c #000073",
"% c #00007F",
"& c #00008B",
"* c #00009B",
"= c #00009F",
"- c #0000A7",
"; c #0000B3",
": c #0000BF",
"> c #0000CB",
", c #0000D7",
"< c #0000DF",
"1 c #0000E3",
"2 c #0000EF",
"3 c blue",
"4 c #0007FF",
"5 c #2323FF",
/* pixels */
"X..++$$&&&&&&&&&**%%***********&&&&*&%%%*%%%%*%%++####++OO.Xo$$$$$*$$$$$$$$$$$$$$+$$$.XXXXX$$$$$$$$$$$$$$$$$$$$$XXXX$$$$$$$$$$XX",
"X..++$$&&***&&&**&%%---****&%%%%%%&&*%##&%%%%%%$++####++OO.Xo$$$$$$$$$$$$$$$$$$$$%$$$.XXXX$$$$$&&&&&&&&&&&&&$$$$$XXX$;;;-&&$$$XX",
"...&&&&&&--**&&&-$&%**%*&-&%-*&%%%*$$$$#$&%%&%%$##++OO++#O..@%=::::::::::*::=&%%%%%%#.  ..@*******------******&&$X  -;,;----&#  ",
"...&&&&&*&&&*&%&&$$%*$&&*;&%-*&%$%$$&###$$%%&%$$%#+#OO++#O..@=<33<::%:%****=&&%$%%$##.  ..@**************--;::-&$X  -,,,----&#  ",
"..o--&&--**-&&&&$##$%&&*---%;-&%%$$#O#####$%$$%%###O++##$O .@=<33<:&*$*&**&&::=$%###OX  ..@*;;--;;-**;*;;;>;>>:-$X  -;,;-*&&%#  ",
"..o--&&-&&*&-&%&&#%#*&*&**%&--&%%$$$#%$##%#%&%%####%++##$O .@=:<<;-**&*&*$&:=##=*%##Oo  ..@*;;--;;***:;;;;>>::;-$X  --;--**&%#  ",
"..o****-&&*&&&%%&#&$;&&&&-%&**%*&&%$#$&+#&$%%%%%%$%%++OO#O .@&=;;;;;*-%&$$&###$&####Oo  ..@*--;--;**;>:--->>-;;-$X  ****--*&#O  ",
"..o****-&&&&*%%&&%#$;**&%&&**$*$%$$#+##+%#$$%##$$%%%++OO#O .@&=;::;;*$*%&&%$#$#####%Oo  ..@*---;;;*;>;::-*;;*--&$X  ****--&&#O  ",
"..O**----&*:&&%-$&&%;-*$&%*&&%%%%%$%&#%#&&%&$+%$#%%%%#%#OO .@%=*:;;**&$&$$%##$#%O$@+Oo  ..@*;;-;-;;:*>--****;-*%#X  %%&**&$$#O  ",
"..O**----**&***-%&&&-&&&%*&$&%*%&$$$%+#+&&&&*%%%$%#%#%##OO .@%&%-;-**%%&&$%%###$$%@+Oo  ..@*;;;--:;;-;>>-:;&*&-%#X  %%&#&&$$$O  ",
"..#&&***&&&%%*&%%&&-*%&%&%$#$%%$-+#+#%#O&&-&%%#%%%%%%%%O#O .O&*&*-*%*&*$#%##&$#%+#@OOo  ..@*;;--:;-;:>11:--**&&&$X  &&%%$$+$$O  ",
"..#&&*&*&%%%**%%%&*;&*%&%%$*$&%&$#+O+#O&&*;&%%&%&&%&*%%O#O .@&*%%%&**&$&%$##*+$$#@+OOo  ..@*;;;;-:;->11>;;-*&*&*$X  &&$%%&+$#O  ",
"..#&&*&&&$%%*%%&$*--&&&%$%$$$&&$*#OoO##&*---%$&&&%$%%#%$#O .o&**%***%*$&%$$#$%#%#@@%Oo  ..@*--;;-:;>;>1::*--;&&$#X  &$$$%%O$#O  ",
"..#&$-*&%**&*&**%%**&%&%$#$#&$$$$#+O++&*%**%&&--*&$%%#$$#O .@&**%***$&$$%$%$+#%*#@@+Oo  ..@*-;;:;;--;-::;*-&-&&$#X  ##$$%$OOOO  ",
"..#&&--&&&&*%**-*&&-%&%%%#%$#$+##$+#+#&*&&-%&-::*-%+##++#O .@&*%%%***%$%$%###+#$++OOOo  ..@*--;;;:;*:;;:;-&-;*&&$X  #++$$$++OO  ",
"..#&&%$&&&&**&&--&$%$%$%$$$###$$%#+##&*-&$%&&--:-*&%##++#O .@&*$%%$%%%$$%%%##+%$#+O#Oo  ..@*-;;;:;:;>:;;---*&-*&$X  o#++OO++oo  ",
"..O%%%%%%&%$&&$:--*%%+%###$++$#O##O#O&---*%&*---*&&$$$##$O .@&%*%**%##%%#$$#$O#%$@OO+o  ..@*--::--:>:>-;;***&--*&X   oooooooo   ",
"..O%%$%$&&&--*%----%%&*%##%%#$$#$O#%$*----%%&*-*&%$$$$##$O .@%%&%%%###*%%$$##$##%+OO+o  ..@*--::-*-:>::;;*-*&-&&$X              ",
"..o$$$&-%&--:--*%-*&&$%###*%%$$##$##%-*%-*&&$%%&%%-#&%++$O .@&-&%%%#$%%$$$%#+OO#OOO+Oo  ..@*--;;*-:;;:*;-*&&%**$$X  .O=----%O.  ",
"..o$$$$&%&-;::-;-**&&&$#$%%$$$%#+OO#O-;-**&&&$#&&&&#%%++$O .@*;&%=%##$$%$%#%#%+O#OO+Oo  ..@*--;;*:-:;*****%&&%&$$X  O=<<<::-$O  ",
"..o$$$$%&--;;;----&-*&%##$$%$%#%#%+O#----&-*&%$%%*&$OO$$#O .O---%=%##%%%$#+#$+%OOOO+Oo  ..@*--;;***;--&&*;;-***$$X  *<3::=--%+  ",
"..o$$$$%&*--;---&-&*%%%##%%%$#+#$+%OO--&-&*%%%%-&%&$OO$$#O .O**%&=$##$#O##+##$O+OOO+Oo  ..@*--**;*&*%-*-;::>;;-%$X  *<3<==-%%+  ",
"...$$%%*&%--&;-&%**%$#$##$#O##+##$O+O-&%**%$#$$--%$O++###O .O&-%&#$$$%++%#+##OO#%@+OOo  ..@*--;*;;&&*;%-:-:;:-&&+X  &<3:-%&%++  ",
"...$$%%&*%*&**%&&&*-=%$$$%++%#+##OO#%%&&&*-=%$&&&%##++###O .O#%%##%+#+$###O+#+OO##+OOo  ..@*-****&&&**-*--:*;-&$+X  &<<:-%&%++  ",
". .++$$$*-&**&&%&&&**=$+#+$###O+#+OO#&%&&&**=$&&$$++$$##OO .O$$#%$#$%##+++OO+##$%@++Oo  ..@*-***-*****&;&-*-*-$#OX  &<>*-%%#O+  ",
".  ++$$$$&*$$&&**&&*=%#$%##+++OO+##$%&**&&*=%#$&$#++$$#OOO .O$###%+###+++OOOO+O$++OOOo  ..@*-***&&**;*&*&&%-$&#OOX  &<**&&##O+  ",
"...OO++$$**$$$$&&**%%%$###+++OOOO+O$+$&&**%%%$$*###$###OOX .O$%%##+$#+oO+#OO#OO+O%O+OX  ..@*--*&&&*&%;&%&%*&%#OOOX  %:=%$%++#+  ",
"....O++$$$$*$$$&&*%%#$$$#+oO+#OO#OO+O$&&*%%#$$&&##$$#OOOO. .O@##+++OOOoO+OOO#O+#OOO+OX  ..@*--;*&;%%;$$%$%&$$+OOOX  %=%%%%%+#+  ",
"....XooO###############OOOoO+OOO#O+#O################OOOX. .XOXXOOoXXXXX+oXXXXXXXXXXX.  ..@&;;-*;*&&&;&%&%#$++$OOX  o$$&;;&$Oo  ",
"......oOOOOOOOOOOOOOOOOXXXXX+oXXXXXXXOOOOOOOOOOOOOOOOOX..  ..X..XX....................  ..@&;;--;*$;%&%%&%##$+*OOX  .o##++OOo.  ",
"..                     ..............                      .                            ..@&;;-;;&%*&%$%%$$+OO$+OX              ",
"..             oooooooooooo                                .                            ..@&-;--;-%&&$&;%$&$OO$+OX              ",
"$$$$$$$$&&&&&&&&&&&&&&***=&%+  ...........................................................@&--;;;;**&*%$$&%&$+$OOX  o@%%%%%%%%%%",
"&&&&&&&&&*-;;;-:<<::=**&&&&%%X ...........................................................@&-;;;;-*&%$%#$#$$%+OOOX o+%===::==*&&",
"---******-;;;;-<<:<:=*$$$%%$$o .....OOOOOOOOOOOOOOOOOOOOOOOOOOOO.......O##&&*;;;;-*%%#X...@&-:;-;*%%&$%$#+$&$#++OX o%===:<,::***",
"****--;:--;;***<<<::&%$$$%%$$o ....O++$$&&$&&&&&***%$$$$OOOOooooO.....OO##$#&-&&**&&%%+o..@&->:-;&**%&%%$$$$##++OX o%=:=:<<,:---",
";*;;;>;>*-;-***::::*=%*%$##+#o ...++$$&&&&&&&&&**%%%%*%$++####++OO....##&$$##&$$$$&&$$+o  @&-:>*--&*&&&%$$$$##OO+X o*:=:<<3<<:--",
":;;;;>>:---*&**=-:====%%$##+#o ...++$&&&***&&&**&%%%%%%$++#OOO++OO....##&$$+$$$$#+$$$$+o  @&-:>*&-&*&:*&%$$%##OO+X #*==><555<:--",
">:--->>-;--;;;;%&&&&=%%%$####o ...$&&&&&--**&&&-$&%%&%%$##+OOOO+#O....$$&$++OO$#$++$#O$o  @%->:-;&*&**&&%$$$OO+++X #*%=><553<:::",
";::-*;;*;---*%&@%*&&&%%%$####o ...$&&&&*&&&*&%&&$$%%&%$$$#+OOOO+#O....$$*$++OO+++O#$$$$o  @%-:;-;*&*&*&%%%$%O%+++X $*%=:<33<<:::",
">--****;:;;-&&*%&;==*=%$@%%##o ..o$-&&--**-&&&&$##$%$$%%$##OOO##$O  ..%%%$++O++O+#OO##+o  @%;;----&*%*&%&$%#++%+OX $=%::><<<::--",
";>>-:;&*:;-******&*&=%$##%%#$o ..o$-&&-&&*&-&%&&#%#%&%%$###+++##$O  ..%%%%$#+++OOOOO##Oo  @%-;-&--%***&&%$##++++OX $-%;=:>>:**--",
">11:--**;;;-***=;:*%&%$+#+++$o ..o$***-&&*&&&%%&#&$%%%%%%$$%+OO+#O  ..##$$$++O+OO++$+++o  @$-;*;*&&***&&%&$#O%OOOX $;=:=:::-::**",
"11>;;-*&;-***;****&=-%$#$+++$o ..o$***-&&&&*%%&&%#$$%##$$%%&$+OO+O  ..##$$++O+####++#$%o  @$-;;**%%***&&%$##OOOOOX $;====:=-:-=*",
">1::*--;;:=:;:-*=&*=%%$++##+$o ..O$*----&*:&&%-$&&%&$+%$#%&=&#$OOO  ..X###$$$$$%%%###%+X  @$-;***&&%*&*%$#++OOOOOX $-=;:===-:-=*",
"-::;*-&--&::-*-&&&=%%*@##%#+#o ..O$*----**&***-%&&&&*%%%$&=;=&+OOO  ...Xooooooooooooooo   @$-;-*%&&***$$$#++OOOOOX $-=;=;;;::-**",
";;:;-&-;;*;*--*&&=**;%@+*##O#o ..#$****&&&%%*&%%&&-&%%#%%%&=&%$+#O  ....                  @$-*-%$#*$%%$$#+#+OO+#OX $-=;;;;:>::;;",
":;;---*&:-;;:*-&&;==$$+++OOO$o ..#$**&*&%%%**%%%&*;&%%&%&&%&*%%+#O  .ooooooooooooooo      @$---%%%&%%#$%#+##OO#$OX $-;;==;:>:=-;",
">-;;***&=-;;;;;**;;*%$$#OOOO$o ..#$-*&&&$%%*%%&$*---%$&&&%$%%$%$#O  +**;;;;;;;;;;;=&%+  ..@&-**%%&%#$$%&$+#O+#$&OX $*;==:::>=-::",
"::;;*-*&*;;;;:*-*;-%$$@#O++O$o ..#$--*&%**&*&**%%**%&*--*&$%$$$$#O  *;;::<<::=**&&&&%%X ..@&-***&%&&&%$$+##$++#$OX $*;;;;:>>>:::",
":*;-*&&%*-;---*-***%*@$+OOOO#o ..#$&--&&&&*%**-*&&-%&-::**%$##++#O o*;::<<:<:=*$$$%%$$o ..@&-*-***&&$%$#$#+&+++$OX $*::;;:::>;--",
"*****%&&***=--;&&&$%$@++OOOO$o ..#$&%$&&&&**&&--&$%&*-::-*&%##++#O o*:::<<<::&%$$$%%$$o ..@&-;-*%&&&%%%$$%%$++++OX $*:;:;;:;>;--",
"-&&*;;-******-*&&&&$+@OO++Oo$o ..O$%%%%%&%$&&$:--*%&*---*&&$$$##$O o*;-:::::*=%*%$##+#o ..@*;;&-*;**%$#%##+O#O+++X $*;::::;=>-**",
"-*-;::>;&&&&&&&&&%*%$@O+OOoo$o ..O$%$%$&&&--*%----%%&***&%$$$$##$O o*;--=-:====%%$##+#o ..@*;;-*;;-&&%%%###++O+++X $*;::,<:;=>**",
";%-:-:;:&%&&$$%%&%$$%#+#OO++#O...o$$$&-%&--:--*%-*&&$%%&%%-#&%++$O o*;-&%&&&&=%%%$####o ..@*--***-*%&$$#$#+#++##OX $%::,<3<:;---",
"*-*--:*;&&&$##$%$$%%###O++##$O ..o$$$$&%&-;::-;-**&&&$#&&&&#+$$+$O o*;-%@%*&&&%%%$####o ..@*;-&&***&&##$$$$$+++#OX $%::,<3<3>;--",
"*&;&-*-*&%&&#%#%&%%####%++##$O ..o$$$$%&--;;;----&-*&%$%%*&$OO#$#O o&:-&%&;==*=%$@%%##o ..@*;**&&*&%&#$$#$$#+++O+X $%:::,<,::>**",
"*&*&&%-$&%%&#&$%%%%%%$%%++OO#O ..o$$$$%&*--;---&-&*%%%%-&%&+OO#$#O o*-;;**&*&=%$##%%#$o ..@*;-&&*%&$%$#%$$##O++O+X $%-::-:-:::**",
";&%&%*&%%%&&%#$$%##$$%%%++OO#O ...$$%%*&%--&;-&%**%$#$$--%$+++##+O o*-:;=;:*%&%$+#+++$o ..@*;-**%&&&$&$%$#$#O#OOOX $%-:==:;;----",
"$$%$%&$$&%-$&&%&$+%$#%%%%#%#OO ...$$%%&*%*&**%&&&*-=%$&&&%#+++##+O o*-:****&=-%$#$+++$o ..@*;-**%&$&&$$$&$#$+OOOOX $%-:::==;----",
"*%%%$%#%#*-%&&&&*%%%$%#%#%##OO ...++$$$*-&**&&%&&&**=$&&$$++$$##OO o*-***=&*=%%$++##+$o ..@*;-;*%&&$&%$##%$##+OOOX $%-=:::-==***",
"%%#%%%%%%&%%&&-&%%#%%%%%%%%O#O .. ++$$$$&*$$&&**&&*=%#$&$#++$$#+OO o**&&&&&=%%*@#$%#+#o ..@*;-;%&&$**%#$%##%#+OOOX $%-===:--****",
"%%&%&&%&*%%%&*;&%%&%&&%&*%%O#O ...OO++$$**$$$$&&**%%%$$*$##$##+OOX o*&&%&&=**;%@$*$#O#o ..@*;--**$%$$%%#$&#$#+O$OX $%-=::=:=--*&",
"%$&&&%$%%%&$*---%$&&&%$%%#%$#O ....O++$$$$*$$$&&*%%#$$$&&$$$#+OOO. o*&%%&&;==$$++$+OO$o ..@*;-***&%$%&%##$$*&$OOOX $%-===:=:=*&&",
"==%%$%==%=*%%**%&&--*&$%%#$$#O ....XooO####################++OOOX. o*%&&**;;*%$$#+OOO$o ..@*;-**&$%*$*%$#&%#$$+OOX $%-==:==:**%%",
"&%==&&$&&=-*&&-%&-::*-%+##++#O ......oOOOOOOOOOOOOOOOOOOOOOOOOX..  o*%%&-*;-%$$@#O++O$o ..@*;**&$&*%&&%#$$%&##OOOX $%-===-=-**%%",
"#&%=##=#&&--&$%&&--:-*&%##++#O .......                             o**&*-***%*@$+OOOO#o ..@*;**&&$$%#%#$##%#++OOOX $%-===:==*&%%",
"$$%%$#$$&$:--*%&*---*&&$$$##$O ......XXXXXXXXXXXXXXXXXXXXXXXXXX    o&&**&&&$%$@++OOOO$o ..@*;**&&$%#%#%&##%##+OOOX #%-*===*-&&%%",
"#$&&&$&#+@----%%&*-*&%$$$$##$O .....X+%=%%%%%%%%%#####+++@@@+@@o...o&&%%&&&&$+@OO++Oo$o ..@*;&*&&&$%##%##$#%#OOOOX ##-====--&&&&",
"$&=&$####%*%-*&&$%%&%%-#&%++$O ....X+%:::====;>>>;==%===%%%%%%#Oo..o&&%%&&%*%$@O+OOoo$o ..@*;&*%$$$@%%&$##%##$##OX +#*&:=-**&&&&",
"&$#&&&&#%-;-**&&&$#&&&&#%%++$O ....X+%=:=%==-=;;;=&==&%%$%&&%%$Oo..o&&$%%&%#%$@OOO+oo#o ..@*;&*$#$%&#%$###$&##++OX +#&=*%&*&&&%%",
"&%$%%*&$O----&-*&%$%%*&$OO$$#O  ...X+%==%$=&======&=:&&$$%&&%%$Oo..o&&%%%%%+#@@OOOOoo+o ..@*;&*$$&$#+######$#O++OX o#&&&&&&&&&%%",
"%%%-&%&$O--&-&*%%%%-&%&$OO$$#O  ...X+=%==&&%-%===&=&&%&&$%%%%$#Oo..o&&%%$$+##+OO#OOoo+o ..@*;&*&&&$+O+$######++OOX o#&&%%%%$%%%%",
"#$$--%$O+-&%**%$#$$--%$O++###O X...X+==%&%$=&#&&&&&&&%#$$$%%%#oOo..o&%=%%$#$++OOO%OOo+o ..@*;&&*&$$#O#%#O##OO++++X o#&&%%$%$$$%%",
"%$&&&%##+%&&&*-=%$&&&%##++###O  ...X+%=&==&%&&==&=%&%###@$$$#Oo#o..o&%=*&&$%+OOOO$OOO#o ..@*;%%*%$#%#%&#$OO#O##OOX o#&%&&%$&$&%%",
"=$&&$$++$&%&&&**=$&&$$++$$##OO  ...X+%=&&%==&&$&&=%##@#O#@$&#OoOo..o&%**%%%%#@OO+OOOO$o ..@*;%%*$$#%$&#O+XOO####OX o$$&&&$$$$$$%",
"%#$&$#++$&**&&*=%#$&$#++$$#OOO  ...X+==%#&&=##=#&&#%#%OO#@#%$OoOo .o%=&=%*%#@%O$#O+#+$o ..@*;&%%$##&%%%OOO+@$%+#OX  #$**&&*=%#$&",
"%$$*###$#$&&**%%%$$*###$###OOX  ...X+==#$$%%&&$$&$@#%#+o@@#$%#O#o..o%*&&%%%+@@+O+OO#O+o ..@*;*%%$+#%OO#XXO#$%%+#OX  ++&&**%%%$$*",
"$$&&##$$#$&&*%%#$$&&##$$#OOOO.  ...X+%=%#$&&&$&#+@%@#Oo@o@#$@XO#o..o&$**%+%%%@#++O+oO+o ..@&;*%%$+#@OOOOOO#%%%$+OX  o+&&*%%#$$&&",
"#########################OOOX.  ...X+#%=$&=&$#&##%=%@O@@@@OOOXO#O..o****%$%*$@#O$OOo+#o ..@&;%%$$@@+#OOO@+O#%++OOX  oo##########",
"ooooooooooooooooooooooooooX..   ...X+##########################Oo..o%*%%%$%@+O+&+Ooo+$o ..@&;#$#@X@OXXXXOOO+$+@OOX  ..oooooooooo",
"                                ....Xooooooooooooooooooooooooooo. .o&&*%$#%%+O+OOoooO$o ..@&;###XXXXXXXXXXX+#$OOOX  ..          ",
"......................................                            .o&$*%*$+#+@@#Oooo++o ..@%-#+XXXXXXXXXXXXX++XOOX  ..X%=%##X...",
".......+#&&&&&&&&&&&&&&&&&&&&&&&&&&&&&&&&&$$$##+                  .o&&%%%$%@@+#OOoOo++o ..O%&#OOXXXXXXXXXXXXXXXOOo  ..X=:=%#@X..",
"....X&*;::>>>>>>,,,>>>>>>:;;;;;;;;------****&&&##X.................o&&%%$$%+++O+OooOO#o ..o@$#ooo+XXXXXXXXOOXXO#Oo  ..#===%$@O..",
"...X&;>,,,,,,,,,,,,,,,,,,>>>>:;;;;------****%&$##+X.....XXXXXXX....o&&&$%%%++##+oOoOOOX .. o+$$$#+#############Oo   ..#%%%%@@X..",
"...X*>,1121>,,1>:;::;-;;------;;****----**%%%$#++XX ..OO%%%%%%#O...o@&$#$#%+O+$OoOoOOOo .... ooooooooooooooooooo    ..XOO@@@#X..",
"...X*>11121,>>>:;;::---;-****-;-****----*%*%%&##+XX .XO%==%%%%##X..o@&$$+@#OOOOoooooO+o ....                        ...XOOOXX...",
"...X*>1111,>>::;--;--;-*&------*&**-**&=%%%&&%$++XX .XO=::=**&&$X ..X@+@@@O@@oooOoOOOO  ........................................",
"...X*>2112,>::-:;-*;;;-*-;;;;--;;;;-**%&%-%*&%$#+XX .XO=::==&&%@X ..X+@OOOooo+OooOOO#o  ......++$$%&&&&&&&&&&&&&&&&&%%$$$++.....",
"...X;>111,,>,::-;;*;-***;;::;---*%&*&&&%%*&%$$#$+XX .XO%=*-**&%@X ..X+++OOOO+#++oO+#+.  ....%>>>>,,,,,,,,,,,,,,,,,,,;;-----&$O..",
"...X;>121>:>;1:-**--;***;:>>:;;-&&**%&%&*$%%##+##XX .XO%**-*=&$@X ...XXX++#$$$$++++O..  ....>:;;:;:<:<:<:<::>,>;;;;;::-:----&O..",
"...X;>,1>,,:>:---**--***;:>>:;-****%&%*&&%$$##+#OXX .X+%=--&*&#@X ....                  ...@>:;;;:>>><>-:*:*->-----*-:-;;;**%O  ",
"...X;>,>,>::1::---;-;-**-;::;;;-**=%&*%%*%%$##+#OXX .X+&=--&%&#@X ....                  ...@::;;:<><>:*>:;;:&:*%&-&&*;:-;;*%%O  ",
"...X;>,,>>-;::;---**-;***-;;;-***;**%&&%&&$$#+#$OXX .X+%=*=%#%+OX ..#::;-*--*&&*%$$#%%#o...@>:::<<<<:-::-:&:&&&-%&&%&*-;-&@%%O  ",
"...X;>,:;,:>:;;--;**--*;*-;-;:=:;:-*&%&%&$&$##+$OXX .X+$&&%&%%+OX ..:;;-**--**&%$$$&#++oo..@,;:,<><<:>->::*&*&$%&%&%&---&&$@%O  ",
"...X;>,;>:>;;;--*;***---=--;-&::-*-=&&%*%%$%$#$&OXX .XO#%&%%%$+OX ..>:----**&&&%$&$##$+oO .@,;;:<:::<::-*=:-$-&$$&%%%&&&##@%$O  ",
"...X;>:-;>;:;:-----****&---;;*;*--***&%%%&&&#++$OXX .XOO###+++OOX ..>:::==**&&%%$$##$#+oO .@,;<;-:,-::*:<:==&$$%&%%%%#$=$#$%$O  ",
"...X;>;;-;->;:;;;;-***&%&=*-:-;;:*-**%&$%%%%#+++OXX .X##OOOOOOO+o ..;;::=&&**%&$$#$$+++oO .@,;<;<;:-:**<3<:=%$&%$$%===$&$$%@+O  ",
"...X;>;>;>>;;;;;;;**&&&%%&*==-;;;;;*%&&%$%%%##$#OXX ..o@@%%%%@+o  ..**-=%%&*%%%$%##$#++oO .@,;--;,-:*:<:<:=&=%$*&$=&$*&$&@$$+O  ",
"...X;>**;;;;;:;;;;;*&&%%%&*=*;;;;:**%&%$$$###$$$oXX ...XXXXXXXX   ..&&%%##%&&&&&&%++++OoO .@,*;;<::,;::*:&*$%*$&&$&#$$*%$%$+OO  ",
"...X;>;*:;>::,1,>>;*&%%%%&&&*-;---**&%%%$$$$##$#oXX ....          ..#$$$###%&&&&%%###@Ooo .@,;;*-:=:<:::$&$**&%$#&%$%+%@%&++OO  ",
"...X;>;-;;;::142,:;*&%&%$%%&***=--;*%%%%$###++#OoXX ................oooooX@@$%%%$@oooooo. .@,;--:*;<:=<-*:-&$$%%%$$%&#&$@$++OO  ",
"...X;>;-::::,,,,1:>-&%%&%$%&*****-*&%$%$$#$#+++OoXX ................                      .@,;*-*::*;<:&&*&$%&*&$$-&#$$$+&+@OO  ",
"...X;>;*;>::,,>,,:>;*&&&&%%&&&&&&&&%%%$##++OO++OoXX ..+&&&&&**************&&&&*&%%%%###o...@,;--:*=&-=:*;&%=%$&&%$%%&%$++@+oOO  ",
"...X;>;*;::::>>,,>>;-*&&&&%%$$&&%%%$####+OOOO++OoXX ..&::::;;;;---****&%%%%%%&&*%##+###o...@,;-***%%==-;&&%%%$##$##%$+$++$XoOO  ",
"...X;>--;:>:,>>>,>;--**&%*%$$##+#$##+++OOOOOOO+OoXX ..&;::;;;--**%**-;--*&%%%*$$$$#++#Oo. .@,;:*:*&-==:$%%=%%#%%$$%%&$+++#o@oO  ",
"...X;>;-;;;:::>,,:;--*&*&&$##++#$+++O+O+OOOOoo+OoXX ..&:;*,;,;**$&&-:>:-*&%$%$$&#####+Oo. .@,;**--:-::=%;%$%$#$%$$#$$$$+##oooO  ",
"...X;>;*;>:;::>::;-*-**&%&##+#+++++OO++++O#++#OOoXX ..&:;:-,,--%&&*;>,>;-&%%$$#O###++OXo. .@,;;:*%:&:=%%#$%%%##%#+$%$%#+++@OoO  ",
"...X:>**;;;;;:>--***-**&%&%$##++O#++#OO+O+++++OooXX ..&:,-;;:;;*&*&-:>:--&%%$$$#%$##+OXX. .@,;;;-:&*=%%$##&%##$#++@$%$#OO@OoOO  ",
"...X:>;;---;;;;*&&**-*&&%&&%$##+#+OO+#+O+O+O+O+OoXX ..*:;,-:,:-;&&&&-;-**%*&&%$#$&+++OXX. .@,;---*:%*%**-##%###+##@$++OO@Oo#XO  ",
"...X:>;;----**-**-&&***&%&%$%$+##OOO#$+OOOo++OOOoXX ..*;-;->,,:;**&%&&**$*$%$$#+##+O+OXX. .@,;-:*-%**%*%%#$%#%###+O++OOO+oO@oO  ",
"...X:>;:;;---;*&&;&&&-***&%#&#OO#+O+$#O+O+O#OOOOoXX ..*;--*:>::;-*$&%*&&%%%%%$%&#%#OOoXX. .@,;--;;*%*====%####%$++O+XOoOOooXoO  ",
"...X:;;*;;---*&%%&&&&&**&&%&##OO#$$$$+#+++Oo++OOoXX ..*-;*-;::--&&&%*&$&%*%&$$$%+#++OoXX. .@,;:-&;**=::===%$$#$+@%#oOOOOOXo+oX  ",
"...X:;;:;-&*&%%&&%&%&%**&%%%#$++O#$%$+#+#+#+O++OXXX ..&-*-*-*;-*%&%&%$#$%%$-+#+#%#O+OOoX. .@,;*:-&&&*::===%$$$#$++X+O+@OOooooO  ",
"...X:;;-***&&&%$%%%$%&&&&$%&%#++O#$%%#+$O+++OOOXoXX ..&-**-*--*&*%&%%$*$&%&$#+O+#OO+oXoX. .@,;&;*:$&*====&$$#+#%++O@+++@OooOOO  ",
"...X:-**&*&&%%%*%$$$$$$%&$&%####++$$%####O++##OoXXX ..&---*-&-*&&&%$%$$$&&$*#OoO####OXXX. .@,-&&===%*$==%%$$#X$@++@#$++#OO@oOX  ",
"...X:-**&&&&%%%%$#++#$%%&%%##+##++#$$+$#+OO+##+OXXX ..&-*-*&*&&&%&%$#$#&$$$$#+O++++OOoXX. .@,-&==&=%%&*$&$$++###@O%+++##O@@oOO  ",
"...X--**&&*&%%$%$#OO+##&##$#OOOO++###$##++++++OoXXX ..$-*&**&*&%&%%%#%$#$+##$+#+###O+ooX. .@>-;=$=&%&&%%%+%##$X+O+O++##$@@@XOO  ",
"...X--*&&&&&$%%$#OooO##$###+OOOO++#O###+O++++OOoXXX ..%-&*&&&*&$%$%$$$###$$%#+###+#@OOoX. .@>-;%%=%==&=$$#+@@@@OOOO+$++#+X@oXO  ",
"...X***&%%%%$%%$+oooo++$##++##++###+#++#++O+OOOXXXX ..%-*&*&%&%%+%###$++$#O##O#O++OOXOXX. .@**$%&%&&%%%%$@O$++@O++OOOO+XOXXXXO  ",
"...X***&&%&%$$#%#OOoO+#$##++##++##OOO+O+OOOOOooXXXX ..%*&&&*&%&#+#%%$$+$$$###+#+#OOOXXXX. .@**-$%&$$%%#%$@##++O#++OO+++@o@oOXO  ",
"...X**&$&$%%&&###+++######+++++++++++++++OOOOoXXXXX ..%&**&%%%&%##$$##+$#++#+$O+OoXXXXXo...@**%%$$%%%$#%##+#+O++OOOOOO@oXXoXX+..",
"...X**&&&&%%&&############+++++++++++++++OOOXXXXXXX ..%*&&%%%#%#$#+###+++++++#+OOXXoooXX...@**&%%$%%$$####++++++O+OOO@@XXXXXX+..",
"XXXX###############################################XXX############################+++++OXXX@$$$$$$$$$$@@@@+@@@@@@@@@@@X@XXXXX$..",
"XXXX$$$$$$$$$$$$$$$$$$$$$$$$$$$$$$$$$$$$$$$$$$$$$$#XXX#$$$$$$$$$$$$$$$$$$$$$$$$$$$$$$$+OXXX###$$$$$$$$$+++@++@+++$@+$+#######$..",
"+++++++++++++++++++++++++++++++++++++++++++++++++++OOO++++++++++++++++++++++++++++++++++++++++++++++++++++++++++++++++++++++++++",
"OOOOOOOOOOOOOOOOOOOOOOOOOOOOOOOOOOOOOOOOOOOOOOOOOOOOOOO+++++++++++++++++++++++++++++++++++++++++++++++++++++++++++++++++++++++++"
};
