/* XPM */
static char *_5127_7bede332490d7c6c87d8e76c1f2e0304dbc2a4d2174d90961f973f69527fdbd5[] = {
/* columns rows colors chars-per-pixel */
"128 128 11 1 ",
"  c #2B230F",
". c #3B2F17",
"X c #43331B",
"o c #4B3B1B",
"O c #573F1F",
"+ c #5F4323",
"@ c #6F4B27",
"# c #774F2B",
"$ c #83532F",
"% c #8B5B33",
"& c #935F37",
/* pixels */
"################################################################################################################################",
"++++++++++++++++++++++++++++++++++++++++++++++++++++++++++++++++++++++++++++++++++++++++++++++++++++++++++++++++++++++++++++++++",
"%%%%%%%%%%%%%%%%%%%%%%%%%%%%%%%%%%%%%%%%%%%%%%%%%%%%%%%%%%%%%%%%%%%%%%%%%%%%%%%%%%%%%%%%%%%%%%%%%%%%%%%%%%%%%%%%%%%%%%%%%%%%%%%%",
"&&&&&&&&&&&&&&&&&&&&&&&&&&&&&&&&&&&&&&&&&&&&&&&&&&&&&&&&&&&&&&&&&&&&&&&&&&&&&&&&&&&&&&&&&&&&&&&&&&&&&&&&&&&&&&&&&&&&&&&&&&&&&&&&",
"$$$$$$$$$$$$$$$$$$$$$$$$$$$$$$$$$$$$$$$$$$$$$$$$$$$$$$$$$$$$$$$$$$$$$$$$$$$$$$$$$$$$$$$$$$$$$$$$$$$$$$$$$$$$$$$$$$$$$$$$$$$$$$$$",
"@@@@@@@@@@@@@@@@+OoOOoO+@@@@@@@@@@@@@@@@@@@@@@@@@@@@+OoOOoO+@@@@@@@@+OoOOoO+@@@@@@@@@@@@+OoOOoO+@@@@@@@@@@@@@@@@@@@@@@+OoOOoO+@@",
"OOOOOOOOOOOOOOX.oO. .XOOOoXXXXXXXXoOOOXXOOXXOOXXXXOOoO. .XOOOOXXOO..oO. .XOOOoXXXXXXoO..oO. .XOOXoOOoXXoOOoXoOXXOOOOOooO. .XOOOO",
"OOOOO+++++++++X.+#. .O#OOoXXXXXXXXoOOOXXOOXXOOXXXXOO+#. .O#OOOXXOO..+#. .O#OOoXXXXXXoO..+#. .O#OXoOOoXXoOOoXoOXXOOOOOo+#. .O#OOO",
"ooooO@#######@oO#&O.O@&@+Ooooooooo+###oo+@oo+@ooooOO#&O.O@&@##oo@#OO#&O.O@&@++oooooo++OO#&O.O@&@o+##+ooO##Oo+#Oo+####@#&O.O@&@+@",
"ooooO@#######@oO#&O.O@&@+Ooooooooo+###oo+@oo+@ooooOO#&O.O@&@#@oo@#OO#&O.O@&@++OooooO++OO#&O.O@&@o+##+ooO##Oo+#Oo+####@#&O.O@&@O@",
"ooooO@######@+oO#&O.O@&@@OoooooooO+##@oo+@oo+@ooooOO#&O.O@&@#@oo@#OO#&O.O@&@@+OooooO+#OO#&O.O@&@o+##+ooO##Oo+#Oo+####@#&O.O@&@o+",
"ooooO+######@+oO#&O.O@&@@+oooooooO+##@oo+@oo+@ooooOO#&O.O@&@#@oo@#OO#&O.O@&@@@+OooO+@#OO#&O.O@&@o+##+ooO##Oo+#OoO####@#&O.O@&@o+",
"ooooO+@#####@OoO#&O.O@&@#+OooooooO@##+oo+@oo+@ooooOO#&O.O@&@@@oo@#OO#&O.O@&@#@++OO++@#OO#&O.O@&@o+##+ooO##Oo+#OoO####@#&O.O@&@o+",
"ooooO+@#####+OoO#&O.O@&@#+OoooooOO@##+oo+@oo+@ooooOO#&O.O@&@@@oo@#OO#&O.O@&@#@@++++@##OO#&O.O@&@o+##+ooO##Oo+#OoO####@#&O.O@&@o+",
"OoooOO@@####+OoO#&O.O@&@#@OoooooO+@#@+oo+@oo+@ooooOO#&O.O@&@@+oo@#OO#&O.O@&@##@@++@###OO#&O.O@&@o+##+ooO##Oo+#OoO####@#&O.O@&@o+",
"OoooOO+@###@OOoO#&O.O@&@#@Oooooo+@@#@+oo+@oo+@ooooOO#&O.O@&@@+oo@#OO#&O.O@&@###@@@####OO#&O.O@&@o+##+ooO##Oo+#OoO####@#&O.O@&@o+",
"@+oooO++@#@+OooO#&O.O@&@#@+OoooO+@##@+oo+@oo+@ooooOO#&O.O@&@@+oo@#OO#&O.O@&@##########OO#&O.O@&@o+##+ooO##Oo+#OoO@###@#&O.O@&@o+",
"@+ooooO++@++OooO#&O.O@&@##+OoooO@@##@Ooo+@oo+@ooooOO#&O.O@&@@+oo@#OO#&O.O@&@##########OO#&O.O@&@o+##+ooO##Oo+#OoO@###@#&O.O@&@o+",
"@+ooooo++++OoooO#&O.O@&@##@+ooo+@###+Ooo+@oo+@ooooOO#&O.O@&@+Ooo@#OO#&O.O@&@##########OO#&O.O@&@o+##+ooO##Oo+#OoO@###@#&O.O@&@o+",
"@+oooooOO+OOooOO#&O.O@&@##@+ooO+@###+Ooo+@oo+@ooooOO#&O.O@&@+Ooo@#OO#&O.O@&@@#########OO#&O.O@&@o+##+ooO##Oo+#OoO@###@#&O.O@&@oO",
"#+OoooooOOOoooOO#&O.O@&@###@Oo+@####+ooo+@oo+@ooooOO#&O.O@&@+Ooo@#OO#&O.O@&@@#########OO#&O.O@&@o+##+ooO##Oo+#OoO+###@#&O.O@&@oO",
"#@+oooooOOoooo+O#&O.O@&@###@+O@@###@+ooo+@oo+@ooooOO#&O.O@&@+Ooo@#OO#&O.O@&@@#########OO#&O.O@&@o+##+ooO##Oo+#OoO+###@#&O.O@&@oO",
"##+ooooooooooo+O#&O.O@&@###@@+@####@Oooo+@oo+@ooooOO#&O.O@&@OooO@#OO#&O.O@&@@########@OO#&O.O@&@o+##+ooO##Oo+#OoO+###@#&O.O@&@oo",
"##+OoooooooooO@O#&O.O@&@###@@@@####@Oooo+@oo+@ooooOO#&O.O@&@OooO##OO#&O.O@&@@########@OO#&O.O@&@o+##+ooO##Oo+#OoO+###@#&O.O@&@oo",
"@@@+ooooooooO+@O#&O.O@&@####@@#####@Oooo+@oo+@ooooOO#&O.O@&@oooO##OO#&O.O@&@@@#######@OO#&O.O@&@o+##+ooO##Oo+#OooO###@#&O.O@&@oo",
"@@#+ooooooooO@@O#&O.O@&@####@@#####@Oooo+@oo+@ooooOO#&O.O@&@ooo+##OO#&O.O@&@+@#######+OO#&O.O@&@o+##+ooO##Oo+#OooO@##@#&O.O@&@oo",
"@@#@+Ooooooo+@@O#&O.O@&@@#########@@oooo+@oo+@ooooOO#&O.O@&@ooO+#@OO#&O.O@&@+@######@+OO#&O.O@&@o+##+ooO##Oo+#OooO@##@#&O.O@&@oo",
"@@##+OoooooO+#+O#&O.O@&@@#########@@oooo+@oo+@ooooOO#&O.O@&@ooO+#@OO#&O.O@&@+@######@+OO#&O.O@&@o+##+ooO##Oo+#OooO@##@#&O.O@&@oo",
"+@##@+ooooOO@@OO#&O.O@&@@#########@+oooo+@oo+@ooooOO#&O.O@&@oo+@#@OO#&O.O@&@O+######@+OO#&O.O@&@o+##+ooO##Oo+#OOoO+##@#&O.O@&@oo",
"+@###@+oooO+#@oO#&O.O@&@@#########@+oooo+@oo+@ooooOO#&O.O@&@oO+@#@OO#&O.O@&@O+######@oOO#&O.O@&@o+##+ooO##Oo+#OOoO+##@#&O.O@&@oo",
"O@####++ooO@@+oO#&O.O@&@@@########@+oooo+@oo+@ooooOO#&O.O@&@OO+##+OO#&O.O@&@o+@@##@@+oOO#&O.O@&@o+##+ooO##Oo+#OOoO+##@#&O.O@&@Oo",
"O+####@+Oo+#@+oO#&O.O@&@+@########@+oooo+@oo+@ooooOO#&O.O@&@O+@##+OO#&O.O@&@o+@@##@@+oOO#&O.O@&@o+##+ooO##Oo+#OOoO+##@#&O.O@&@Oo",
"o+@####@++@#@OoO#&O.O@&@+@########@+oooo+@oo+@ooooOO#&O.O@&@O+@#@+OO#&O.O@&@oO+@@@@+OoOO#&O.O@&@o+##+ooO##Oo+#++oo+##@#&O.O@&@Oo",
"o+@#####@+@#@OoO#&O.O@&@+@@#######++oooo+@oo+@ooooOO#&O.O@&@++##@+OO#&O.O@&@oo++@@++ooOO#&O.O@&@o+##+ooO##Oo+#++ooO##@#&O.O@&@Oo",
"oO@@####@@##+OoO#&O.O@&@O+@#######+Ooooo+@oo+@ooooOO#&O.O@&@+@##@OOO#&O.O@&@ooO++++OooOO#&O.O@&@o+##+ooO##Oo+#++ooO@#@#&O.O@&@Oo",
"oO@@#####@##+OoO#&O.O@&@O+@######@+Ooooo+@oo+@ooooOO#&O.O@&@####@OOO#&O.O@&@oooO++OoooOO#&O.O@&@o+##+ooO##Oo+#++ooO@#@#&O.O@&@Oo",
"oo+@@######@OooO#&O.O@&@O+@######@+Ooooo+@oo+@ooooOO#&O.O@&@###@+OOO#&O.O@&@ooooOOooooOO#&O.O@&@o+##+ooO##Oo+#@+ooo+#@#&O.O@&@+O",
"oo+@@######@OooO#&O.O@&@o+@######@+Ooooo+@oo+@ooooOO#&O.O@&@###@+OOO#&O.O@&@ooooooooooOO#&O.O@&@o+##+ooO##Oo+#@+Ooo+#@#&O.O@&@+O",
"ooO+@#####@+OooO#&O.O@&@oO@@#####@OOoooO@@oo+@ooooOO#&O.O@&@##@@+OOO#&O.O@&@ooooooooooOO#&O.O@&@o+##+ooO##Oo+#@+OooO@@#&O.O@&@+O",
"ooO+@@####@+OooO#&O.O@&@oO+@#####@OOoooO@+oo+@ooooOO#&O.O@&@##@++oOO#&O.O@&@ooooooooooOO#&O.O@&@o+##+ooO##Oo+#@+OooO+@#&O.O@&@+O",
"oooO+@####@+oooO#&O.O@&@oO+@####@@OooooO@+oo+@ooooOO#&O.O@&@##@+OoOO#&O.O@&@oooooooooOOO#&O.O@&@o+##+ooO##OoO#@+Oooo+@#&O.O@&@++",
"oooO+@@##@+OoooO#&O.O@&@oO+@####@+OooooO@+oo+@ooooOO#&O.O@&@#@@+OoOO#&O.O@&@OooooooooOOO#&O.O@&@o+##+ooO##OoO#@+OoooO+#&O.O@&@O+",
"oooOO+@@@@+OooOO#&O.O@&@oo++####@+OoooO+@+oo+@ooooOO#&O.O@&@#@++ooOO#&O.O@&@+oooooooo+OO#&O.O@&@o+##+ooO##OoO##@OoooO+#&O.O@&@O+",
"ooooO++@@+OOooOO#&O.O@&@ooO+@##@@+OoooO+@+oo+@ooooOO#&O.O@&@@@+OooOO#&O.O@&@@OooooooO@OO#&O.O@&@o+##+ooO##OoO##@OooooO#&O.O@&@O+",
"OoooOO+++OooooOO#&O.O@&@ooO+@##@++OoooO+@+oo+@ooooOO#&O.O@&@@+OOooOO#&O.O@&@@+OooooO+@OO#&O.O@&@o+##+ooO##OoO@#@OooooO#&O.O@&@O+",
"OoooOOO+OOooooOO#&O.O@&@ooO++@#@+OOoooO+@+oo+@ooooOO#&O.O@&@@+OoooOO#&O.O@&@@@+OooO+@@OO#&O.O@&@o+##+ooO##OoO@#@OooooO#&O.O@&@O+",
"OooooOOOOooooOOO#&O.O@&@oooO+@@@+OooooO@@+oo+@ooooOO#&O.O@&@++OoooOO#&O.O@&@#@@++++@@#OO#&O.O@&@o+##+ooO##OoO@#@OOoooO#&O.O@&@O+",
"OOooooOOoooooOOO#&O.O@&@oooO++@++Ooooo+@@+oo+@ooooOO#&O.O@&@+OooooOO#&O.O@&@##@@++@@##OO#&O.O@&@o+##+ooO##OoO@#@OOoooo#&O.O@&@O+",
"+OoooooooooooOOO#&O.O@&@oooO++++OOoooo+@@+oo+@ooooOO#&O.O@&@OOooooOO#&O.O@&@###@@@@###OO#&O.O@&@o+##+ooO##+oO@#@+Ooooo#&O.O@&@O+",
"+OooooooooooO+OO#&O.O@&@oooOO+++OooooO+@@+oo+@ooooOO#&O.O@&@OoooooOO#&O.O@&@####@@####OO#&O.O@&@o+##+ooO##+oO+##+Ooooo#&O.O@&@O+",
"@OooooooooooO+OO#&O.O@&@ooooOOOOoooooO+@@Ooo+@ooooOO#&O.O@&@ooooooOO#&O.O@&@##########OO#&O.O@&@o+##+ooO##+oO+##++Oooo#&O.O@&@OO",
"@+ooooooooooO+OO#&O.O@&@oooooOOOoooooO+@+Ooo+@ooooOO#&O.O@&@ooooooOO#&O.O@&@##########OO#&O.O@&@o+##+ooO##+oO+@#@+Oooo#&O.O@&@oO",
"@+oooooooooo++OO#&O.O@&@oooooooooooooO@@+Ooo+@ooooOO#&O.O@&@oooooOOO#&O.O@&@##########OO#&O.O@&@o+##+ooO##+oO+@#@+Oooo#&O.O@&@oO",
"@@oooooooooo++OO#&O.O@&@oooooooooooooO@@+Ooo+@ooooOO#&O.O@&@oooooOOO#&O.O@&@#########@oO#&O.O@&@o+##+ooO##+oO+@#@+Oooo#&O.O@&@oO",
"@@OooooooooO@+OO#&O.O@&@ooooooooooooO+##+ooO@@ooooOO#&O.O@&@oooooOOO#&O.O@&@#########@oO#&O.O@&@o+##+ooO##+oO+@#@+OOoo#&O.O@&@oo",
"@@+oooooooo+@+OO#&O.O@&@ooooooooooooO+##+ooO@@ooooOO#&O.O@&@ooooOOOO#&O.O@&@#########@oO#&O.O@&@o+##+ooO##+oO+@#@+OOoo#&O.O@&@oo",
"+@+oooooooo+@+OO#&O.O@&@ooooooooooooO+#@OooO@@ooooOO#&O.O@&@ooooO+OO#&O.O@&@@@#######+oO#&O.O@&@o+##+ooO##+oO+@#@++Ooo#&O.O@&@oo",
"+@+Oooooooo+@OOO#&O.O@&@ooooooooooooO+#@OooO@@ooooOO#&O.O@&@ooooO+OO#&O.O@&@+@#######+oO#&O.O@&@o+##+ooO@#+oOO@#@@+Ooo#&O.O@&@oo",
"O@@Oooooooo+@OOO#&O.O@&@ooooooooooooO+#@OooO@@ooooOO#&O.O@&@ooooO@OO#&O.O@&@+@#######+oO#&O.O@&@o+##+ooO@#+ooO+##@+Ooo#&O.O@&@oo",
"O+@+ooooooO@+OOO#&O.O@&@ooooooooooooO+#@oooO@@ooooOO#&O.O@&@oooo+@OO#&O.O@&@+@#######+oO#&O.O@&@o+##+ooO@#+ooO+##@+Ooo#&O.O@&@Oo",
"O+@+OoooooO@+oOO#&O.O@&@oooooooooooo+@#@oooO@@ooooOO#&O.O@&@oooO+@OO#&O.O@&@O+######@+oO#&O.O@&@o+##+ooO@#+ooO+##@+OOo#&O.O@&@Oo",
"O+@@Oooooo+@+oOO#&O.O@&@oooooooooooo+@#@oooO@@ooooOO#&O.O@&@oooO@@OO#&O.O@&@O+######@+oO#&O.O@&@o+##+ooO@#+ooO+###++Oo#&O.O@&@Oo",
"o++@+Ooooo@@OoOO#&O.O@&@Oooooooooooo+@#@oooO@@ooooOO#&O.O@&@ooO+@#OO#&O.O@&@O+@@####@OoO#&O.O@&@o+##+ooO@#+ooO+@##@+Oo#&O.O@&@Oo",
"oO+@+OoooO@+OoOO#&O.O@&@Oooooooooooo+@#@oooO@@ooooOO#&O.O@&@ooO+@#OO#&O.O@&@O+@@####@OoO#&O.O@&@o+##+ooO@#+ooO+@##@+OO#&O.O@&@Oo",
"oOO@@+OOO+@+OoOO#&O.O@&@+OoooooooooO@#@@oooO@@ooooOO#&O.O@&@oO+@##OO#&O.O@&@oO+@####+OoO#&O.O@&@o+##+ooO@#+ooo+@##@@+O#&O.O@&@Oo",
"oOO+@@+OO@@OooOO#&O.O@&@+OoooooooooO@#@+oooO@@ooooOO#&O.O@&@OO+@##OO#&O.O@&@oO+@####+OoO#&O.O@&@o+##+ooO@#+ooo+@##@@+O#&O.O@&@Oo",
"ooO+@@+O+@+OooOO#&O.O@&@@+OooooooooO@#@+oooO@@ooooOO#&O.O@&@O+@@##OO#&O.O@&@oO+@##@@OooO#&O.O@&@o+##+ooO@#+oooO+###@+O#&O.O@&@Oo",
"ooOO@@@+@@+OooOO#&O.O@&@@+OoooooooO+@#@+oooO@@ooooOO#&O.O@&@++@##@Oo#&O.O@&@oO++##@+OooO#&O.O@&@o+##+ooO@#+oooO+####@O#&O.O@&@Oo",
"oooO+@@@@+OoooOO#&O.O@&@#@+OooooooO+##@+ooO+@@ooooOO#&O.O@&@+@@##@Oo#&O.O@&@ooO+@@@+OooO#&O.O@&@o+##+ooO@#+oooO+####@+#&O.O@&@OO",
"oooO++@@++OoooOO#&O.O@&@#@+Ooooooo++##@+ooO+@+ooooOO#&O.O@&@+@###@Oo#&O.O@&@ooO+@@++oooO#&O.O@&@o+##+ooO@#+oooo+@###@@#&O.O@&@OO",
"ooooO++++OOoooOO#&O.O@&@##@+OooooO+@##@OooO+@+ooooOO#&O.O@&@@@###@Oo#&O.O@&@oooO++OOoooO#&O.O@&@o+##+ooO@#+oooo+@####@#&O.O@&@OO",
"ooooOO++OOooooOO#&O.O@&@##@+OooooO+###+OooO+@+ooooOO#&O.O@&@@####+Oo#&O.O@&@oooO++OoooOO#&O.O@&@o+##+ooO@#+Oooo+@####@#&O.O@&@OO",
"oooooOOOOoooooOO#&O.O@&@###@+OooO+@##@+OooO@@+ooooOO#&O.O@&@####@+Oo#&O.O@&@ooooOOOoooOO#&O.O@&@o+##+ooO@#+Oooo+@####@#&O.O@&@O+",
"ooooooOOooooooOO#&O.O@&@####++oo++###@+Ooo+@@+ooooOO#&O.O@&@####@+Oo#&O.O@&@oooooOooooOO#&O.O@&@o+##+ooO@#+Oooo+@####@#&O.O@&@O+",
"ooooooooooooooOO#&O.O@&@####@+OO+@###@+ooo+@@+ooooOO#&O.O@&@####@+oo#&O.O@&@ooooooooooOO#&O.O@&@o+##+ooO@#+OoooO@####@#&O.O@&@O+",
"OoooooooooooooOO#&O.O@&@#####@++@####@Oooo+@@+ooooOO#&O.O@&@###@@Ooo#&O.O@&@oooooooooo+O#&O.O@&@o+##+ooO@#+OoooO@####@#&O.O@&@O+",
"OooooooooooooOOO#&O.O@&@######@@####@@Oooo+@@+ooooOO#&O.O@&@###@+Ooo#&O.O@&@oooooooooo+O#&O.O@&@o+##+ooO@#+OoooO@@###@#&O.O@&@o+",
"OooooooooooooOOO#&O.O@&@############@@Oooo+@@+ooooOO#&O.O@&@###@+Ooo#&O.O@&@oooooooooo+O#&O.O@&@o+##+ooO@#++oooO+@###@#&O.O@&@o+",
"OOoooooooooooOOO#&O.O@&@@@##########@+OooO+#@+ooooOO#&O.O@&@##@@+Ooo#&O.O@&@Oooooooooo+O#&O.O@&@o+##+ooo+#@+oooo+@###@#&O.O@&@o+",
"+OooooooooooOOOO#&O.O@&@+@##########@+oooO+#@+ooooOO#&O.O@&@##@+OOoo#&O.O@&@OooooooooO+O#&O.O@&@o+##+ooo+#@+oooo+@###@#&O.O@&@o+",
"+Ooooooooooo++OO#&O.O@&@O@##########@+oooO+#@OooooOO#&O.O@&@#@@+Oooo#&O.O@&@+ooooooooO+O#&O.O@&@o+##+ooo+@@+ooooO@@##@#&O.O@&@oO",
"+OOooooooooo++OO#&O.O@&@O@@#########@+oooO@#@OooooOO#&O.O@&@#@@+Oooo#&O.O@&@+OoooooooO+O#&O.O@&@o+##+oooO@@+ooooO+@##@#&O.O@&@oO",
"@+OooooooooO+@OO#&O.O@&@o+@########@+OoooO@#@OooooOO#&O.O@&@#@+OOooO#&O.O@&@@OooooooO++O#&O.O@&@o+##+oooO@#+ooooO+@##@#&O.O@&@oO",
"@+OoooooooOO+@OO#&O.O@&@o+@########@+OoooO@#+OooooOO#&O.O@&@#@+OoooO#&O.O@&@@+OoooooO++O#&O.O@&@o+##+oooO@#+ooooo+@##@#&O.O@&@oO",
"@+OOooooooO+@+OO#&O.O@&@oO@########@+OoooO@#+OooooOO#&O.O@&@@@+OoooO#&O.O@&@#+OooooO+++O#&O.O@&@o+##+oooO+#+OooooO@@#@#&O.O@&@oo",
"@@OOooooooO+@+OO#&O.O@&@oO@########@OooooO@#+OooooOO#&O.O@&@@++OoooO#&O.O@&@#@+OooO++@+O#&O.O@&@o+##+oooO+#+OooooO@@#@#&O.O@&@oo",
"@@+OOooooOO+@+OO#&O.O@&@oo+@######@@OoooOO@#+oooooOO#&O.O@&@@+OooooO#&O.O@&@#@++OO++@@+O#&O.O@&@o+##+oooO+#+OooooO+@@@#&O.O@&@oo",
"+@+OOooooOO@@+OO#&O.O@&@oo+@######@+OoooOO#@+oooooOO#&O.O@&@@+OooooO#&O.O@&@#@@+++++@@+O#&O.O@&@o+##+oooO+#@OooooO+@@@#&O.O@&@oo",
"+@@+OOooOO+@@+OO#&O.O@&@oo++@####@@+OoooO+#@+oooooOO#&O.O@&@+OooooOO#&O.O@&@##@++++@@#+O#&O.O@&@o+##+oooOO#@OoooooO+@@#&O.O@&@oo",
"O@@+OOooOO+@++OO#&O.O@&@oo++@####@++ooooO+#@OoooooOO#&O.O@&@+OooooOO#&O.O@&@##@@++@@##+O#&O.O@&@o+##+oooOO@#OoooooO++@#&O.O@&@oo",
"O+@@+OOOO++@+OOO#&O.O@&@ooO+@@##@@+Ooooo+@#@OoooooOO#&O.O@&@OoooooOO#&O.O@&@###@@@@###+O#&O.O@&@o+##+oooOO@#+OoooooO++#&O.O@&@oo",
"O+@@++OO++@@+OOO#&O.O@&@oooO+@@@@+OOoooo+@#@OoooooOO#&O.O@&@ooooooOO#&O.O@&@####@@###@+O#&O.O@&@o+##+oooOO@#+OooooooO+#&O.O@&@oo",
"oO@#++OO++#@+OOO#&O.O@&@ooooO@@@@+OooooO+@#@OoooooOO#&O.O@&@oooooO+O#&O.O@&@@########@+O#&O.O@&@o+##+oooOO@#+OoooooooO#&O.O@&@oo",
"oO@#@++++@#@OOOO#&O.O@&@ooooO+@@++OooooO+@#@OoooooOO#&O.O@&@oooooO+O#&O.O@&@@########@OO#&O.O@&@o+##+oooOO@#++oooooooo#&O.O@&@oo",
"oO@#@++++@#@OoOO#&O.O@&@oooooO+++OoooooO+#@+ooooOoOO#&O.O@&@oooooO+O#&O.O@&@@########@OO#&O.O@&@o+##+oooOO@#@+Oooooooo#&O.O@&@oo",
"oO+##@++@@#@OoOO#&O.O@&@ooooooOOOOoooooO@#@+ooooOoOO#&O.O@&@ooooO++O#&O.O@&@@########@OO#&O.O@&@o+##+ooooO@#@+Oooooooo#&O.O@&@oo",
"oo+###@@@##@OoOO#&O.O@&@OooooooOOoooooOO@#@+ooooOoOO#&O.O@&@ooooO++O#&O.O@&@@#######@@OO#&O.O@&@o+##+ooooO@#@+Oooooooo#&O.O@&@oo",
"oo+@##@@###@OoOO#&O.O@&@OoooooooooooooOO@#@OooooOoOO#&O.O@&@ooooO++O#&O.O@&@@#######@@oO#&O.O@&@o+##+ooooO+#@+OOoooooo#&O.O@&@oo",
"oo++@######@OoOO#&O.O@&@OoooooooooooooO+@#+OooooOoOO#&O.O@&@oooO+@+O#&O.O@&@@@######@+oO#&O.O@&@o+##+ooooO+@##+Ooooooo#&O.O@&@Oo",
"oo++@#####@+OoOO#&O.O@&@OOoooooooooooo++@#+OooooOoOO#&O.O@&@oooO+@+O#&O.O@&@+@######@+oO#&O.O@&@o+##+ooooO+@##+Ooooooo#&O.O@&@Oo",
"ooOO@@####@+OoOO#&O.O@&@++oooooooooooo+@##+OooooOoOO#&O.O@&@ooO+@#+O#&O.O@&@+@#####@@+oO#&O.O@&@oO##+ooooO+@##+OOooooo#&O.O@&@Oo",
"oooO+@####@+OoOO#&O.O@&@++oooooooooooO+@#@+OoooOOoOO#&O.O@&@ooO+##+O#&O.O@&@+@#####@@+oO#&O.O@&@oO##+ooooO+@##+OOooooo#&O.O@&@Oo",
"oooO+@####++OoOO#&O.O@&@@+OooooooooooO+@#@OooooOOoOO#&O.O@&@oO+@##+O#&O.O@&@O@@####@@+oO#&O.O@&@oO##+ooooo++##@+Oooooo#&O.O@&@OO",
"oooO+@@###++OoOO#&O.O@&@@+OooooooooooO+@#@OooooOOoOO#&O.O@&@OO+@##+O#&O.O@&@O@@####@+OoO#&O.O@&@oO##+ooooo++##@+Oooooo#&O.O@&@+O",
"oooo++@#@@++ooOO#&O.O@&@#+OoooooooooO+@#@@OooooOOoOO#&O.O@&@O+@###+O#&O.O@&@O+@###@@+OoO#&O.O@&@oO##+oooooO+##@++Ooooo#&O.O@&@+O",
"oooo++@#@+++ooOO#&O.O@&@#@OOooooooooO+@#@+OooooOOoOO#&O.O@&@+@@###+O#&O.O@&@O+@###@@+OoO#&O.O@&@oO##+oooooO+##@@+Ooooo#&O.O@&@+O",
"ooooOO+@@+OOooOO#&O.O@&@#@++oooooooo++@#@OOoooO+OoOO#&O.O@&@@@####+O#&O.O@&@OO@@##@+OooO#&O.O@&@oO@#+OooooO+@@##+OOOoo#&O.O@&@++",
"oooooO+@++OOooOO#&O.O@&@##++Oooooooo++@#@OooooO+OoOO#&O.O@&@@#####+O#&O.O@&@oO+@##@+OooO#&O.O@&@oO@#+OooooO+@@##++OOoo#&O.O@&@@+",
"oooooO+++OOoooOO#&O.O@&@@@@+Oooooooo+@##@OooooO+OoOO#&O.O@&@######+O#&O.O@&@oO+@##@+OooO#&O.O@&@oO@#+OooooOO+@##@++Ooo#&O.O@&@@+",
"oooooOO++OOoooOO#&O.O@&@+@@+OOoooooO+@#@@OooooO+OoOO#&O.O@&@######+O#&O.O@&@oOO@@#++OooO#&O.O@&@oO@#+OooooOO+@##@++OOo#&O.O@&@@+",
"ooooooO++OooooOO#&O.O@&@+@#@+OoooooO+@#@+oooooO@OoOO#&O.O@&@######+O#&O.O@&@ooO+@@+OOooO#&O.O@&@oO@#+OoooooO+@##@++OOo#&O.O@&@@+",
"ooooooO+OOooooOO#&O.O@&@O@#@+OOoooO+@@#@+oooooO@OoOO#&O.O@&@#####@+O#&O.O@&@ooO+@@+OoooO#&O.O@&@oO@#+OoooooO++##@@+OOO#&O.O@&@@+",
"ooooooOOOoooooOO#&O.O@&@O+@#@+OOooO+@##@OoooooO@OoOO#&O.O@&@#####@+O#&O.O@&@ooOO++OOoooO#&O.O@&@oO@#+OoooooOO+@@##+OOO#&O.O@&@@+",
"oooooooOOoooooOO#&O.O@&@O+@#@@+OOoO+###+OoooooO@OoOO#&O.O@&@#####@OO#&O.O@&@ooOO++OOoooO#&O.O@&@oO@#+OooooooO+@@##+OOO#&O.O@&@@@",
"OooooooooooooOOO#&O.O@&@oO@@#@@+OO+@##@+ooooooO@OoOO#&O.O@&@#####@OO#&O.O@&@oooOOOOooooO#&O.O@&@oo@@++ooooooO++@##@+OO#&O.O@&@#@",
"OooooooooooooOOO#&O.O@&@oO+@##@@++@###@+oooooO+@OoOO#&O.O@&@#####@OO#&O.O@&@oooOOOOooooO#&O.O@&@oo+@++ooooooOO+@##@+OO#&O.O@&@#@",
"OOooooooooooo+OO#&O.O@&@oo+@@###@@###@++oooooO+#OoOO#&O.O@&@####@+OO#&O.O@&@ooooOOoooooO#&O.O@&@oo+@@+oooooooO+@##@+OO#&O.O@&@#@",
"OOooooooooooO+OO#&O.O@&@ooO+@########@+Oooooo+@#OoOO#&O.O@&@####@+OO#&O.O@&@oooooooooooO#&O.O@&@oo+@@+oooooooO++##@+OO#&O.O@&@#@",
"+OooooooooooO+OO#&O.O@&@ooO+@@######@@Ooooooo+@#OoOO#&O.O@&@###@@+OO#&O.O@&@oooooooooooO#&O.O@&@oo+@@+OooooooOO+@@@+OO#&O.O@&@#@",
"+OooooooooooO@OO#&O.O@&@oooO@@#####@@+OoooooO+@@OoOO#&O.O@&@###@@OOO#&O.O@&@oooooooooooO#&O.O@&@oo+@@+OoooooooO++@@+OO#&O.O@&@#@",
"+OOooooooooO+@OO#&O.O@&@oooO+@@@##@@@+ooooooO+@@OoOO#&O.O@&@##@@+OOO#&O.O@&@oooooooooooO#&O.O@&@ooO+@+OoooooooOO+@@+OO#&O.O@&@#@",
"++OooooooooO+@OO#&O.O@&@oooo++@@@#@@+OooooooO@#@ooOO#&O.O@&@##@@+OOO#&O.O@&@oooooooooooO#&O.O@&@OoO+@@OooooooooOO+@+OO#&O.O@&@#@",
"@+OOoooooooO+@OO#&O.O@&@ooooO++@@@@+Oooooooo+@#@ooOO#&O.O@&@#@@++oOO#&O.O@&@ooooooooooOO#&O.O@&@OoO+@@OOoooooooOO+++OO#&O.O@&@#@",
"@+OOoooooooO@@OO#&O.O@&@oooooO++@@++OooooooO+@#+ooOO#&O.O@&@#@@+OoOO#&O.O@&@ooooooooooOO#&O.O@&@Ooo+@@OOooooooooOO++OO#&O.O@&@#@",
"@++OoooooooO@@OO#&O.O@&@ooooooO++++OoooooooO+@#+ooOO#&O.O@&@@@+OooOO#&O.O@&@ooooooooooOO#&O.O@&@OooO+@+OoooooooooOO+OO#&O.O@&@#@",
"@@+OooooooOO@@OO#&O.O@&@oooooooO++OooooooooO@#@OooOO#&O.O@&@@+OoooOO#&O.O@&@ooooooooooOO#&O.O@&@+ooO+++OooooooooooOOOO#&O.O@&@#@",
"@@++OooooO++@@OO#&O.O@&@ooooooooOOooooooooO+@@+OooOO#&O.O@&@+OooooOO#&O.O@&@OooooooooOOO#&O.O@&@+Ooo+++OOooooooooooOOO#&O.O@&@@@",
"@@++OOooOO++++OO#&O.O@&@OoooooooooooooooooO++++oooOO#&O.O@&@OoooooOO#&O.O@&@OOooooooOOOO#&O.O@&@+OooO+++OoooooooooooOO#&O.O@&@@@"
};
