/* XPM */
static char *_0945_1b768b9017c5dc35aa9c56d3659b8ae563b5e9510826ec4de3cef774e87be28b[] = {
/* columns rows colors chars-per-pixel */
"64 64 256 2 ",
"   c black",
".  c #1F170B",
"X  c #170F07",
"o  c #4B4B4B",
"O  c white",
"+  c #1B1B1B",
"@  c #131313",
"#  c #0B0B0B",
"$  c #070707",
"%  c #2F371F",
"&  c #232B0F",
"*  c #171F07",
"=  c #0F1700",
"-  c #4F3B2B",
";  c #473323",
":  c #3F2B1B",
">  c #FFB7B7",
",  c #F7ABAB",
"<  c #F3A3A3",
"1  c #EB9797",
"2  c #E78F8F",
"3  c #DF8787",
"4  c #DB7B7B",
"5  c #D37373",
"6  c #CB6B6B",
"7  c #C76363",
"8  c #BF5B5B",
"9  c #BB5757",
"0  c #B34F4F",
"q  c #AF4747",
"w  c #A73F3F",
"e  c #A33B3B",
"r  c #9B3333",
"t  c #972F2F",
"y  c #8F2B2B",
"u  c #8B2323",
"i  c #831F1F",
"p  c #7F1B1B",
"a  c #771717",
"s  c #731313",
"d  c #6B0F0F",
"f  c #670B0B",
"g  c #5F0707",
"h  c #5B0707",
"j  c #530707",
"k  c #4F0000",
"l  c #470000",
"z  c #430000",
"x  c #FFEBDF",
"c  c #FFE3D3",
"v  c #FFDBC7",
"b  c #FFD3BB",
"n  c #FFCFB3",
"m  c #FFC7A7",
"M  c #FFBF9B",
"N  c #FFBB93",
"B  c #FFB383",
"V  c #F7AB7B",
"C  c #EFA373",
"Z  c #E79B6B",
"A  c #DF9363",
"S  c #D78B5B",
"D  c #CF8353",
"F  c #CB7F4F",
"G  c #BF7B4B",
"H  c #B37347",
"J  c #AB6F43",
"K  c #A36B3F",
"L  c #9B633B",
"P  c #8F5F37",
"I  c #875733",
"U  c #7F532F",
"Y  c #774F2B",
"T  c #6B4727",
"R  c #5F4323",
"E  c #533F1F",
"W  c #4B371B",
"Q  c #3F2F17",
"!  c #332B13",
"~  c #2B230F",
"^  c #EFEFEF",
"/  c #E7E7E7",
"(  c #DFDFDF",
")  c gray86",
"_  c LightGray",
"`  c #CBCBCB",
"'  c gray78",
"]  c gray75",
"[  c #B7B7B7",
"{  c gray70",
"}  c gray67",
"|  c #A7A7A7",
" . c #9F9F9F",
".. c #979797",
"X. c #939393",
"o. c #8B8B8B",
"O. c #838383",
"+. c gray50",
"@. c #777777",
"#. c #6F6F6F",
"$. c gray42",
"%. c gray39",
"&. c #5B5B5B",
"*. c gray34",
"=. c gray31",
"-. c gray28",
";. c #434343",
":. c gray23",
">. c #373737",
",. c #2F2F2F",
"<. c #272727",
"1. c #232323",
"2. c #77FF6F",
"3. c #6FEF67",
"4. c #67DF5F",
"5. c #5FCF57",
"6. c #5BBF4F",
"7. c #53AF47",
"8. c #4B9F3F",
"9. c #439337",
"0. c #3F832F",
"q. c #37732B",
"w. c #2F6323",
"e. c #27531B",
"r. c #1F4317",
"t. c #17330F",
"y. c #13230B",
"u. c #0B1707",
"i. c #BFA78F",
"p. c #B79F87",
"a. c #AF977F",
"s. c #A78F77",
"d. c #9F876F",
"f. c #9B7F6B",
"g. c #937B63",
"h. c #8B735B",
"j. c #836B57",
"k. c #7B634F",
"l. c #775F4B",
"z. c #6F5743",
"x. c #67533F",
"c. c #5F4B37",
"v. c #574333",
"b. c #533F2F",
"n. c #9F8363",
"m. c #8F7753",
"M. c #836B4B",
"N. c #775F3F",
"B. c #675333",
"V. c #5B472B",
"C. c #4F3B23",
"Z. c #43331B",
"A. c #7B7F63",
"S. c #6F7357",
"D. c #676B4F",
"F. c #5B6347",
"G. c #53573B",
"H. c #474F33",
"J. c #3F472B",
"K. c #373F27",
"L. c #FFFF73",
"P. c #EBDB57",
"I. c #D7BB43",
"U. c #C39B2F",
"Y. c #AF7B1F",
"T. c #9B5B13",
"R. c #874307",
"E. c #732B00",
"W. c white",
"Q. c #FFDBDB",
"!. c #FFBBBB",
"~. c #FF9B9B",
"^. c #FF7B7B",
"/. c #FF5F5F",
"(. c #FF3F3F",
"). c #FF1F1F",
"_. c red",
"`. c #EF0000",
"'. c #E30000",
"]. c #D70000",
"[. c #CB0000",
"{. c #BF0000",
"}. c #B30000",
"|. c #A70000",
" X c #9B0000",
".X c #8B0000",
"XX c #7F0000",
"oX c #730000",
"OX c #670000",
"+X c #5B0000",
"@X c #4F0000",
"#X c #430000",
"$X c #E7E7FF",
"%X c #C7C7FF",
"&X c #ABABFF",
"*X c #8F8FFF",
"=X c #7373FF",
"-X c #5353FF",
";X c #3737FF",
":X c #1B1BFF",
">X c blue",
",X c #0000E3",
"<X c #0000CB",
"1X c #0000B3",
"2X c #00009B",
"3X c #000083",
"4X c #00006B",
"5X c #000053",
"6X c white",
"7X c #FFEBDB",
"8X c #FFD7BB",
"9X c #FFC79B",
"0X c #FFB37B",
"qX c #FFA35B",
"wX c #FF8F3B",
"eX c #FF7F1B",
"rX c #F37317",
"tX c #EB6F0F",
"yX c #DF670F",
"uX c #D75F0B",
"iX c #CB5707",
"pX c #C34F00",
"aX c #B74700",
"sX c #AF4300",
"dX c white",
"fX c #FFFFD7",
"gX c #FFFFB3",
"hX c #FFFF8F",
"jX c #FFFF6B",
"kX c #FFFF47",
"lX c #FFFF23",
"zX c yellow",
"xX c #A73F00",
"cX c #9F3700",
"vX c #932F00",
"bX c #872300",
"nX c #4F3B27",
"mX c #432F1B",
"MX c #372313",
"NX c #2F1B0B",
"BX c #000053",
"VX c #000047",
"CX c #00003B",
"ZX c #00002F",
"AX c #000023",
"SX c #000017",
"DX c #00000B",
"FX c cyan",
"GX c #FF9F43",
"HX c #FFE74B",
"JX c #FF7BFF",
"KX c magenta",
"LX c #CF00CF",
"PX c #9F009B",
"IX c #6F006B",
"UX c #A76B6B",
/* pixels */
",.>.G G G G G G G H I E ,.>.H G H H H K K K K K K K K K L Y E ,.>.K H H H H H H H H H H H H L U R >.G G G G G G G G G H U E + ,.",
",.>.G G G G G G G H I E ,.>.H G H H H K K K K K K K K K L Y E ,.>.K H H H H H H H H H H H H L U R >.G G G G G G G G G H U E + ,.",
",.>.H G H H H H H L U E ,.>.H H H K K L L L L L L L L L P Y W ,.>.K H H H H K K K K K H H K P Y R >.H G H H H H H H H K U E + ,.",
",.>.H G K K K K K P Y E ,.>.H H K L L P P P L L L L L L P Y E ,.>.L K K K K K K K K K K K K P Y R >.H H K K H K K K H L Y E + ,.",
",.>.H H K L L L L P T Q ,.>.H G K L L L P P P L L L L L P Y E ,.>.P K L L L L L L L L L L L P Y R >.K K K K K K K K K L T W + ,.",
",.>.K K L L L L L I T Q ,.>.H H K L L L L L P P P P L L P Y E ,.>.I L L L L L L L L L L L P I T E >.K K L L L L L L L P T Q + ,.",
",.>.L K P P P P P U T Q ,.>.H G K L L L L L L P P P P L P Y E ,.>.I L P P P P P P P P P P P U T E >.K L L L L L L L L P T Q + ,.",
",.>.L L P P I P I U R Q ,.>.H G K L L L L L L L P P P P P T W ,.>.I L P P P P P P P P P P I U T E >.K L P P P P P P P I R Q + ,.",
",.>.L L P I I I U Y R Q ,.>.H H K L L L L L L L L P P P I T E ,.>.I P I I I I I I I I I I U Y T E >.L P P P P P P P P U R Q + ,.",
",.>.L L I U U U U T E Q ,.>.H H K L L L L L L L P P P P I T E ,.>.U P I U U U U U U U U U U T R E >.L P I I I I I I I U R Q + ,.",
",.>.L L I U U U U T E Q ,.>.K H L L L L L L L L P P P P I T E ,.>.U I U U U U U U U U U U Y T R E >.L I U U U U U U U Y R Q + ,.",
",.>.K L U Y Y Y Y T E ! ,.>.K K K L L L L L L P P P P P I Y R ,.>.Y U U Y Y Y Y Y Y Y Y Y T T R W >.L I U U U U U U U T E Q + ,.",
",.>.L L U T T T T R W ! ,.>.L K K L L L P L L P P P P I U Y R ,.>.T U Y T T T T T T T T T T R E W >.I I Y Y Y Y Y Y Y T E Q + ,.",
",.>.Y U T R R R R E ! 1.,.>.I K L L L P P P P P P P I I U T R ,.>.T Y T T T T T T T T T T R E W Q >.I U T T T T T T T T W ! + ,.",
",.,.E E W W W W W Q ~ 1.,.>.I L L L L P P P P I I I U U T T E ,.>.T T R R R R R R R R R E E W Q Q >.U U T T T T T T T R Q ! 1.,.",
",.,.~ ! ! ! ! ! ~ ~ 1.,.,.>.U P P P P I U U U U Y Y Y T T R E ,.>.E E E E E E E E E E E E W Q Q ,.>.U Y T T T T T T R E ! + ,.,.",
",.,.,.1.1.,.,.1.1.1.,.,.>.>.T Y T T T T R R R R R R R R R E ,.,.>.>.Q Q Q Q Q Q Q Q Q Q Q Q Q ,.,.>.U Y T T R R R R R Q ! + >.,.",
">.>.>.>.>.>.>.>.>.,.,.>.>.>.>.,.,.,.,.,.,.,.,.,.,.,.,.,.,.,.,.>.>.>.>.>.,.,.,.,.,.,.,.,.,.,.,.,.,.>.Y Y T R R R R E Q ! 1.,.>.>.",
"G G G G H K L L P U T R E >.>.>.>.>.>.>.>.>.>.>.>.>.>.>.>.>.>.>.>.>.>.>.>.>.>.>.,.,.T T T T R R ,.>.Y T T R R E E Q ! + ! T I G ",
"G G G G G G G G H K K K K H H H K K L I T >.>.H H H H H H H K L L P P I U U Y T ,.,.T Y Y T R W ,.>.T R E E W W Q ! + 1.W U L G ",
"G G G G G G G G G G G G G G G G G H K P T ,.>.Y I U Y Y Y Y Y Y Y Y Y Y Y Y T E ,.,.E R R E E Q ,.>.Q Q Q Q ! ! ! + 1.,.R I G G ",
"G G G G G G G G G H H H H H H H H H K P T ,.,.,.,.,.,.,.,.,.,.,.,.,.,.,.,.,.,.,.,.,.,.,.,.,.>.>.>.>.>.,.,.1.1.1.1.,.,.! T L G G ",
"G G G G G G G G H H H H H H K K H H K P T ,.,.>.>.>.>.>.>.>.>.>.>.>.>.>.>.>.>.>.>.>.>.>.>.>.>.>.>.>.>.>.>.>.>.>.>.,.,.W U H G G ",
"H G G G G G G H H K K K K K K K K K K P T ,.>.T Y Y Y Y T R ,.>.T T T T T T T R R E W >.>.U K K K K K L P I I U Y ,.,.R I H G G ",
"H H H H H H H K K K K K K K K K K K K P T ,.>.T Y T T T T R 1.>.T T T T T T R R E E W ,.>.K K L L L L L L L P I Y 1.,.T L G H H ",
"H H H H H H K K K K K K K K K K L L L P T ,.>.T T R R R R R 1.>.R R E E E E E E E W Q 1.>.K K L P P P P P L P I U 1.>.U H H H K ",
"H H K K K K K K K K K K K K L L L L L P T ,.>.T T R R R R R 1.>.>.Q Q Q Q Q Q Q Q Q Q 1.>.K K L L L P P P P P I Y 1.,.I K H H H ",
"H K K L L L L L L L L L L L P P P P P P T ,.>.T T R E E E R 1.>.>.>.>.>.>.>.,.1.1.1.1.1.>.K K L L L L L P P P I U 1.>.L K K K K ",
"P P P I I I I I I U U U U U U U U I I U T ,.>.T T E E E E R 1.,.P L K K K K L I U Y Y 1.>.K K L L L L L L L P I Y 1.>.P L P P P ",
"T T T T T T T T T R R R R T T T T T T T E ,.>.T T E E E R R 1.>.K K L L L L L L P I Y 1.>.K L P P P P P P P P U Y 1.>.T Y T T T ",
",.,.,.,.,.,.,.,.,.,.,.,.,.,.,.,.,.,.,.,.,.>.>.T R E E E R R 1.>.K K L P P P P P P I U 1.,.T Y T T T T T T T T T R 1.>.,.1.+ + + ",
",.>.>.>.>.>.>.>.>.>.>.>.>.>.>.>.>.>.>.>.>.>.>.T R E E E R R 1.>.K K L L L P P P P I Y 1.1.,.,.,.,.,.,.,.,.,.,.,.,.,.>.,.,.1.1.1.",
",.>.U L K H K K K K K K K K K K K K K K R >.>.T T R E E R R 1.>.K K L L L L L P P I U 1.,.>.>.>.>.>.>.>.>.>.>.>.>.>.>.>.>.,.,.,.",
",.U K H G G G F F F F F F F F F F F G H Y >.>.R T R R E E R 1.>.K K L L L L L L P I Y 1.>.P H K K K K K L L L P I I I I T R E ,.",
",.L H G G G F F F F F F F G G G G G G H U ,.>.E R R R E E R 1.>.H H K L L L L L P I Y 1.>.H H H H K K K L L P P P P P P U T Q ,.",
",.K G G G F F G G G G G G G G G G G H K U ,.>.Q Q Q W Q Q Q 1.>.H H K L L L L L P I Y 1.>.K H K K L P P P I I I I I I U Y T W ,.",
",.H G G G G G G G G G G G G G H H H H L U ,.>.,.,.,.,.,.,.,.,.>.H H K L L L L L P I Y 1.>.L K L P I I I U U U U U U U U Y T E ,.",
",.H G G G G G G G G H H H H H H H H K L Y ,.>.>.>.>.>.>.>.>.,.>.H H K L L L L L P I U 1.>.L L P I U U U U U U U U U U U U T E ,.",
",.H G G G G G H H H H K K K K K H H K P Y ,.>.T T Y Y Y T T ,.>.K K L L L L L L P I Y 1.>.L L I U U U U U U U I U U U U U T R ,.",
",.K G G G G H K K K K K K K K H H H H P Y ,.>.Y U Y Y U U R ,.>.K K L L L L L L P I U 1.>.L L P U U I I I I I I I I I I U Y R ,.",
",.K G G G H H K K K K K K K H H H H K P Y ,.>.Y U T T Y U R ,.>.K K L L L L L L P P U 1.>.I L P I I I I I I I I I P I I I Y T ,.",
",.K G G H H K K K K K H K K H H H H K P Y ,.>.Y U Y Y U U R ,.>.H H K L L L L L L P I 1.>.I L P I I I I I P P P P P P P I Y T ,.",
",.K G H K K K K K K K K K K K K K K K P T ,.>.T Y T T Y T R ,.>.K K L L L L L L K L I 1.>.I L P P I I I P P P P P P P P I U T ,.",
",.L K K L L L L L L L L L L L K K L P I T ,.,.E R R R R E W ,.>.P K L L L L L L L P I 1.>.U P P P I I I I I I I I I P P I Y T ,.",
",.Y P P P P P P P P P P P P P P L P I U T ,.,.,.,.,.,.,.,.,.>.>.U P P P P P P P P I U 1.,.T U U U U U U U U U U U U U U Y T T ,.",
"1.,.T T T T T T T T T T T T T T T T T T E ,.>.>.;.;.;.;.>.>.>.>.R T T T Y Y Y Y T T T ,.,.E R T R R R R R R R R R R R R R R E ,.",
">.>.,.,.,.,.,.,.,.,.,.,.,.,.,.,.,.,.,.,.,.,.>.>.L G G G L R >.>.,.,.,.,.,.,.,.,.,.,.,.,.,.,.,.,.,.1.1.1.1.,.,.,.1.1.1.,.,.,.,.,.",
">.>.>.>.>.>.>.>.>.>.>.>.>.>.>.>.>.>.>.>.>.>.>.>.K G G G H T >.>.>.>.>.>.>.>.>.>.>.>.>.>.>.>.>.>.>.>.>.>.>.>.>.>.>.>.>.>.>.>.>.>.",
"K K K K K K K K P L >.Y L K K H H H H L Y T ,.>.H G H K P T >.>.H H H H H H H H H H H H H H H H H H H H H H H H H H H H H H H +.",
"K K K H H H H K P P ,.L H H K K H H H L U R ,.>.H H L L I E ,.>.K H H K K K K K K K K K K K K K K K H H H H K K K K K K K K K H ",
"P P P L K K K P I U ,.L H H K L L L L P Y E ,.>.H K P P U E ,.>.L K P P P P P P P P P P P P P P P P P P P P P P P P P P P P P I ",
"U U I P P P P I U T ,.L H K L P P P P U T E ,.>.L L P I U E ,.>.P P I U U U U U U U U U I U U U U U I I I I U U U U U U I I U I ",
"Y Y Y U U U U Y T T ,.K K P P I I I U T R W ,.>.Y U U U T E 1.,.U I Y Y Y Y Y Y Y Y Y Y Y Y Y Y Y Y Y Y Y Y Y Y Y Y Y Y Y Y Y Y ",
"E E R R R R R R R R ,.K L I U Y Y T T R W ,.,.,.,.R T T R Q 1.>.T T R E E E E E E E E E E E E E E E R R R E E E E E E E E E E E ",
"Q Q Q Q Q Q Q Q W ,.,.L L U T T T R E W ,.>.T Y ,.1.Q E E Q ,.,.W W Q Q Q Q Q Q Q Q Q Q Q Q Q Q Q Q Q Q Q Q Q Q Q Q Q Q Q Q Q Q ",
",.,.,.,.,.,.,.,.,.,.>.Y U T E E E Q Q ,.>.Y P U T ,.1.Q Q ,.>.>.>.>.>.>.>.>.>.>.,.,.,.1.1.1.1.1.1.1.1.1.1.1.1.1.1.1.1.1.1.1.1.,.",
",.,.>.>.>.>.>.>.>.>.;.;.>.>.,.,.,.,.,.,.>.K K P I T ,.,.,.>.P L H H K L P I U U T R E W Q >.>.>.>.>.>.>.>.>.>.>.>.>.>.>.,.,.,.,.",
",.>.P H H H H H H K H K K H H H H H P >.>.H H L P U E ,.>.P K H G G G G G G H H H H H H H H H H H H H H H H H H H H K K H P R ,.",
",.>.H G G G H H H K K K K K K K P I T ,.>.H K P I U R 1.,.K G G H H H H H H H H K K K K H H K K K K K K K K K K K K K K L I E 1.",
",.>.H H K K K L L P P P P P P P U R Q ,.>.K K P U Y R 1.,.H H K L L L P P P P P P P P P P P P P P P P P P P P P P P P P U T E 1.",
",.>.L K L P P P P I I I I U U U T E ! ,.>.K K I Y T E 1.,.L L P P P P I I I I I I I I I I I I I I I I I I I I I I U U U Y R W 1.",
",.>.I P P I U U U U U U Y Y T T R W ! ,.>.K L U T R E 1.,.U P P I U U U U U U U U U U U U U Y Y Y Y Y Y Y Y Y Y Y Y T T T E Q 1.",
",.>.Y U T T T T T T T R R R E E E Q ! ,.>.I I T R E Q 1.,.T P I U Y T T T T T T T R T T T R R R R R R R R R R R R R E E E Q ! 1.",
",.>.>.Q Q Q Q Q Q ! ! ! ! ! ! ! ! 1.1.,.>.;.E Q Q ! ,.1.,.W E R E E W Q Q Q Q Q Q Q Q ! ! ! ! ! ! ! ! ! ! ! ! ! ! ! ! ! ! ~ ~ 1."
};
